/* XPM */
static char *_cbdb13d2daa482df70d39b9fe57242ds7M9i7D39cy3qrOJ[] = {
/* columns rows colors chars-per-pixel */
"60 60 219 2 ",
"   c #0C0E0A",
".  c #1C030A",
"X  c #1D0A0A",
"o  c #16050B",
"O  c #001906",
"+  c #0D110A",
"@  c #021606",
"#  c #17160A",
"$  c #23060B",
"%  c #230A0B",
"&  c #2E0B09",
"*  c #330D0A",
"=  c #300D07",
"-  c #3C130B",
";  c #002904",
":  c #182D07",
">  c #2D3513",
",  c #4C1B09",
"<  c #461709",
"1  c #561D09",
"2  c #592109",
"3  c #632509",
"4  c #6B2909",
"5  c #712D09",
"6  c #7D2B02",
"7  c #773108",
"8  c #004500",
"9  c #004D00",
"0  c #005B00",
"q  c #005500",
"w  c #15550D",
"e  c #1B5C11",
"r  c #134800",
"t  c #2C4119",
"y  c #304A1B",
"u  c #006000",
"i  c #007B00",
"p  c #1E7213",
"a  c #296A13",
"s  c #404103",
"d  c #7E5E0F",
"f  c #725916",
"g  c #4F6612",
"h  c #59641D",
"j  c #6C691B",
"k  c #66751C",
"l  c #657E1F",
"z  c #6A761B",
"x  c #6E6D25",
"c  c #812A02",
"v  c #8B3500",
"b  c #843B06",
"n  c #87380A",
"m  c #953B01",
"M  c #973D08",
"N  c #94430C",
"B  c #9B450B",
"V  c #9E4808",
"C  c #9E590A",
"Z  c #9D4711",
"A  c #855712",
"S  c #945216",
"D  c #8A4A0F",
"F  c #A34B0B",
"G  c #A54709",
"H  c #B34C09",
"J  c #A5510A",
"K  c #AA540A",
"L  c #A55609",
"P  c #BD5403",
"I  c #B6540A",
"U  c #A64B14",
"Y  c #B65510",
"T  c #9B7412",
"R  c #8F6611",
"E  c #BD641C",
"W  c #A46713",
"Q  c #AF5F28",
"!  c #B35B23",
"~  c #BF632A",
"^  c #A17A30",
"/  c #A37F2F",
"(  c #C45906",
")  c #D35D0D",
"_  c #C86501",
"`  c #D56903",
"'  c #D47807",
"]  c #D2740A",
"[  c #EA6D00",
"{  c #E77305",
"}  c #C76C2C",
"|  c #C86D2E",
" . c #C5662A",
".. c #CA722E",
"X. c #C6702D",
"o. c #C76B30",
"O. c #CB7135",
"+. c #D87A38",
"@. c #D76F38",
"#. c #E07A3E",
"$. c #DC7E43",
"%. c #DB7D49",
"&. c #D47941",
"*. c #008B00",
"=. c #018500",
"-. c #009700",
";. c #00B700",
":. c #298A2D",
">. c #2B8A31",
",. c #339332",
"<. c #379933",
"1. c #369739",
"2. c #399B38",
"3. c #3CA034",
"4. c #3FA139",
"5. c #6F891F",
"6. c #439729",
"7. c #5F9A28",
"8. c #5C9724",
"9. c #648B23",
"0. c #659425",
"q. c #799B24",
"w. c #45A22A",
"e. c #5AAA2D",
"r. c #47AA3C",
"t. c #49AC3B",
"y. c #45A838",
"u. c #4EB334",
"i. c #4DB13B",
"p. c #52B635",
"a. c #59B331",
"s. c #55BB34",
"d. c #51B538",
"f. c #68A229",
"g. c #66B32F",
"h. c #71AE2C",
"j. c #379644",
"k. c #3E9D4D",
"l. c #3C9C44",
"z. c #3E9C52",
"x. c #3FA146",
"c. c #3FA052",
"v. c #409E53",
"b. c #42A445",
"n. c #42A34A",
"m. c #48AA42",
"M. c #40A054",
"N. c #A38A2C",
"B. c #A38A29",
"V. c #B89C32",
"C. c #89A321",
"Z. c #D3840A",
"A. c #D58715",
"S. c #D09710",
"D. c #FB830F",
"F. c #EB9C00",
"G. c #F78B11",
"H. c #E29515",
"J. c #C9B00E",
"K. c #E7A40C",
"L. c #EDB500",
"P. c #F1A214",
"I. c #D8833A",
"U. c #C8982A",
"Y. c #E09421",
"T. c #D4A536",
"R. c #D4B432",
"E. c #CDD30F",
"W. c #CCD815",
"Q. c #DAD51D",
"!. c #C2C011",
"~. c #E4C600",
"^. c #DBD428",
"/. c #EDC33B",
"(. c #D3F439",
"). c #DE834A",
"_. c #DD8746",
"`. c #D99849",
"'. c #E08449",
"]. c #E28A4A",
"[. c #E38944",
"{. c #E49C46",
"}. c #EC9D46",
"|. c #E3934A",
" X c #EC964D",
".X c #E4994A",
"XX c #E79749",
"oX c #E69453",
"OX c #EB9B51",
"+X c #E6A346",
"@X c #EBA446",
"#X c #EBAA47",
"$X c #E5A24B",
"%X c #EDA54A",
"&X c #EBAB4A",
"*X c #ECB447",
"=X c #ECBB47",
"-X c #ECB54A",
";X c #ECBC4A",
":X c #E3B541",
">X c #EBA453",
",X c #EEB551",
"<X c #EDC443",
"1X c #ECC449",
"2X c #ECC94A",
"3X c #EDC846",
"4X c #EED34C",
"5X c #F1D14E",
"6X c #EDCD58",
"7X c #F1D251",
"8X c #EFD15E",
"9X c #D8E942",
"0X c #EED56A",
"qX c #EFDA7C",
"wX c #EEDC86",
"eX c #EBE498",
"rX c #ECE6A6",
"tX c #EBECB5",
"yX c #F0F6D2",
/* pixels */
"s.s.s.s.s.s.s.s.s.s.p.u.3.3.3.3.3.3.3.3.3.n.z.z.z.z.z.z.j.>.>.,.>.>.>.,.1.x.b.x.b.b.b.b.b.<.:.>.>.>.>.>.>.y.s.s.s.s.s.s.",
"s.s.s.s.s.s.s.s.s.s.s.u.3.3.3.3.3.2.3.3.3.c.z.z.z.z.z.v.j.>.:.>.:.:.>.:.1.x.b.b.b.b.b.n.b.<.:.>.>.>.>.>.>.r.s.s.s.s.s.s.",
"s.s.s.s.s.s.s.s.s.s.p.u.3.3.3.3.3.3.3.3.3.x.k.z.z.z.z.M.j.>.>.>.>.>.:.>.1.b.b.b.b.x.b.n.b.<.>.>.>.>.>.j.>.u.s.s.s.s.s.s.",
"s.s.s.s.s.s.s.s.s.s.s.u.3.3.3.3.3.3.3.3.3.l.z.z.z.z.z.M.j.>.>.>.>.>.>.:.1.b.b.b.b.b.b.b.b.<.>.>.>.>.:.p ,.d.s.s.s.s.s.s.",
"s.s.s.s.s.s.s.s.s.s.u.u.3.3.3.3.3.3.3.3.3.x.z.z.z.z.z.c.j.:.>.>.:.>.>.:.1.b.n.b.n.b.b.b.b.<.>.>.>.>.>.:.,.p.p.s.s.s.s.s.",
"s.s.s.s.s.s.s.s.s.s.p.u.2.3.3.3.<.3.3.3.3.x.z.z.z.z.z.z.j.:.>.>.:.:.>.:.1.b.n.n.b.b.m.b.b.,.>.>.>.>.>.:.,.d.s.s.s.s.s.s.",
"s.s.s.s.s.s.s.s.s.s.s.u.3.3.3.3.3.3.3.3.u.n.c.k.z.c.c.c.1.:.:.:.:.:.:.:.2.n.m.n.b.m.n.n.m.<.,.:.>.>.:.,.<.p.s.s.s.s.s.s.",
"s.s.s.s.s.s.s.s.s.s.s.s.s.s.s.s.s.s.s.s.p.d.p.d.d.p.s.d.p.s.p.u.s.p.s.p.s.s.d.d.d.u.d.d.u.u.u.d.u.u.u.p.u.s.s.s.s.s.s.s.",
"s.s.s.s.s.s.s.s.s.s.s.s.s.s.s.s.s.s.s.s.s.s.s.s.s.s.s.s.s.s.s.s.s.s.s.s.s.s.s.s.s.s.s.s.s.s.s.s.p.s.s.s.s.s.s.s.s.s.s.s.",
"s.s.s.s.s.s.s.s.s.s.s.s.s.s.s.s.s.s.s.s.s.s.s.s.s.s.s.s.s.s.s.s.s.s.s.s.s.s.s.s.s.s.s.s.s.s.s.s.s.s.s.s.s.s.s.s.s.s.s.s.",
"s.s.s.s.s.s.s.s.s.s.s.s.s.s.s.s.s.s.s.s.s.s.s.s.s.s.s.s.s.s.s.s.s.s.s.s.s.s.s.s.s.s.s.s.s.s.s.s.s.s.s.s.s.s.s.s.s.s.s.s.",
"s.s.s.s.s.s.s.s.s.s.s.s.s.s.s.s.s.s.s.s.s.s.s.s.s.s.s.s.s.s.s.s.s.s.s.s.s.s.s.s.s.s.s.s.s.s.s.s.s.s.s.s.s.s.s.s.s.s.s.s.",
"s.s.s.s.s.s.s.s.s.s.s.s.s.s.s.s.s.s.s.s.s.s.s.s.s.s.s.s.s.s.s.p.s.s.s.s.s.s.s.s.s.s.s.s.s.s.s.s.s.s.s.s.s.s.s.s.s.s.s.s.",
"s.s.s.s.s.s.s.s.s.s.s.s.s.s.s.s.s.s.s.s.s.s.s.s.s.s.s.s.s.s.s.s.d.s.s.s.s.s.s.s.s.s.s.s.s.s.s.s.s.s.s.s.s.s.s.s.s.s.s.s.",
"s.s.s.s.s.s.s.s.s.s.s.s.s.s.s.s.s.s.s.s.s.e.0.0.A Z L L J Q Q J K K V D 0.0.a.s.s.s.s.s.s.s.s.s.s.s.s.s.s.s.s.s.s.s.s.s.",
"s.s.s.s.s.s.s.s.s.s.s.s.s.s.s.s.s.s.s.s.a.9.D n  .%X2X2X/.rXtX<X2X2X&X@.N b z s.s.s.s.s.s.s.s.s.s.s.s.s.s.s.s.s.s.s.s.s.",
"s.s.s.s.s.s.s.s.s.s.s.s.s.s.s.s.s.s.s.s.l Z $.:X=X=X0XyX0X2X5X8XyXqX/.=X*XI.U z s.s.s.s.s.s.s.s.s.s.s.s.s.s.s.s.s.s.s.s.",
"s.s.s.s.s.s.s.s.s.s.s.s.s.s.s.s.s.s.p.9.S +.&X7X5X3X8XeX6XwXeX2XrX8X3X5X7X,XI.S z s.s.s.s.s.s.s.s.s.s.s.s.s.s.s.s.s.s.s.",
"s.s.s.s.s.s.s.s.s.s.s.s.s.s.s.s.s.a.0.N +.,X4X2X2X3X3X/./.rXtX/./.3X2X2X2X5X,X+.Z 9.a.s.s.s.s.s.s.s.s.s.s.s.s.s.s.s.s.s.",
"s.s.s.s.s.s.s.s.s.s.s.s.s.s.s.s.s.7.b +.-X4X2X1X2X2X3X1X1X<X3X1X1X3X1X2X1X2X5X=X$.n 0.s.s.s.s.s.s.s.s.s.s.s.s.s.s.s.s.s.",
"s.s.s.s.s.s.s.s.s.s.s.s.s.s.s.s.s.7.b R.,X,X2X#X<X;X%X3X#X*X;X%X3X#X=X1X&X1X;X-X:Xb 0.p.s.s.s.s.s.s.s.s.s.s.s.s.s.s.s.s.",
"s.s.s.s.s.s.s.s.s.s.s.s.s.s.s.s.0.A o.&X1X1X*X1X-X*X=X*X=X*X*X=X#X=X*X*X1X-X;X1X-XO.A 9.s.s.s.s.s.s.s.s.s.s.s.s.s.s.s.s.",
"s.s.s.s.s.s.s.s.s.s.s.s.s.s.s.s.l M '.%X,X;X%X;X%X#X*X}.*X*X=X*X}.*X#X%X;X&X-X;X%X].U j s.s.s.s.s.s.s.s.s.s.s.s.s.s.s.s.",
"s.s.s.s.s.s.s.s.s.s.s.s.s.s.s.s.l M $.&X-X%X%X%X%X@X}.}.}.*X=X}.@X}.@X%X@X%X#X&X>X'.G k s.s.s.s.s.s.s.s.s.s.s.s.s.s.s.s.",
"s.s.s.s.s.s.s.s.s.s.s.s.s.s.s.s.l M %.&X#X&X&X+X@X@X@X@X@X}.%X}.}.@X@X@X@X#X#X&X%X_.G k s.s.s.s.s.s.s.s.s.s.s.s.s.s.s.s.",
"s.s.s.s.s.s.s.s.s.s.s.s.s.s.s.s.l m _.&X-X#X#X#X#X@X@X@X@XT.@X@X@X@X@X@X%X#X&X#X&X%.Z k s.s.s.s.s.s.s.s.s.s.s.s.s.s.s.s.",
"s.s.s.s.s.s.s.s.s.s.s.s.s.s.s.s.9.n ].>X.X`.#X#X#X@X@X@X}.}.%X}.@X+X#X#X#X#X{.{.>XoXZ k s.s.s.s.s.s.s.s.s.s.s.s.s.s.s.s.",
"s.s.s.s.s.s.s.s.s.s.s.s.s.s.s.h.T H o..X.X|.$X#X}.}.@X|.@X}.}.@X|.+X{.{.#X{.|.|.$XX.I W h.s.s.s.s.s.s.s.s.s.s.s.s.s.s.s.",
"s.s.s.s.s.s.s.s.s.s.s.s.p.g.g.S.G.` 6 O.>X$X_.+X_._.{.%.}.[._.{.%..X].%.+X_..X$X&.6 ` G.S.g.g.s.s.s.s.s.s.s.s.s.s.s.s.s.",
"s.s.s.s.s.s.s.s.s.s.s.s.s.Z.] Q.9XT.c o.).|.+X).+X{.'.+X[.XX|.'.$X]..X+X).$X.X).O.c U.9XQ.' ' s.s.s.s.s.s.s.s.s.s.s.s.s.",
"s.s.s.s.s.s.s.s.s.s.s.s.s.C.C.S.F.K.!.L ~ oXOX).].].).]._.].[._.|.).].|._.OXoXo.C J.H.F.J.C.C.s.s.s.s.s.s.s.s.s.s.s.s.s.",
"s.s.s.s.s.s.s.s.s.s.s.s.s.p.d.j 7 C ~.] Y ! ~ ).'.).).%.%.%.%.%.%.%.).).].~ ! Y _ ~.W n f s.s.s.s.s.s.s.s.s.s.s.s.s.s.s.",
"s.s.s.s.s.s.s.s.s.s.s.s.s.s.s.y o < I ` ( m G | ..}  . . . . . . .o.o. .} G m P ` ( , o > p.s.s.s.s.s.s.s.s.s.s.s.s.s.s.",
"s.s.s.s.s.s.s.s.s.s.s.s.s.s.s.y % * , 2 I D.{ N v v v v v m v v v v v v v { D._ 3 < * % > u.s.s.s.s.s.s.s.s.s.s.s.s.s.s.",
"s.s.s.s.s.s.s.s.s.s.s.s.s.s.s.> X < N N F K H { [ Y.R.W.W.E.E.W.W.R.Y.[ { H J V B N , X > s.s.s.s.s.s.s.s.s.s.s.s.s.s.s.",
"s.s.s.s.s.s.s.s.s.s.s.s.s.s.s.6.y $ 1 4 5 7 B I I ] P.L.^.(.(.^.L.P.A.H E V n 5 4 2 & t <.s.s.s.s.s.s.s.s.s.s.s.s.s.s.s.",
"s.s.s.s.s.s.s.s.s.s.s.s.s.s.s.w.a # % * < 5 M N N G ( ( ] ^.Q.S.( ( H N N N 7 , * X # a 6.s.s.s.s.s.s.s.s.s.s.s.s.s.s.s.",
"s.s.s.s.s.s.s.s.s.s.s.s.s.s.s.e =.-.# % * , 3 N B 7 1 4 ( S.H.( 5 1 5 N N 3 , = $ X *.-.w s.s.s.s.s.s.s.s.s.s.s.s.s.s.s.",
"s.s.s.s.s.s.s.s.s.s.s.s.s.s.s.e *.;.-.# o X = , , < 2 F 5 ( _ 5 B 2 < , , = X X X *.;.-.w s.s.s.s.s.s.s.s.s.s.s.s.s.s.s.",
"s.s.s.s.s.s.s.s.s.s.s.s.s.s.s.w.p 0 q ; q r o $ & = - 2 , 6 7 , 3 - = = % . : u ; 9 u p 6.s.s.s.s.s.s.s.s.s.s.s.s.s.s.s.",
"s.s.s.s.s.s.s.s.s.s.s.s.s.s.s.s.w.e > g i 8 O O X $ % * * - - * - % % # O O 8 i g t w 6.s.s.s.s.s.s.s.s.s.s.s.s.s.s.s.s.",
"s.s.s.s.s.s.s.s.s.s.s.s.s.s.s.s.s.e.` }.x ; 0 0 :   # + + +   +   +   # 0 u 8 h  X` 8.s.s.s.s.s.s.s.s.s.s.s.s.s.s.s.s.s.",
"s.s.s.s.s.s.s.s.s.s.s.s.s.s.s.s.s.f.C I..X`.T.T.a ; 8 8 8 8 8 8 8 8 ; u U.T.`.`.I.L q.s.s.s.s.s.s.s.s.s.s.s.s.s.s.s.s.s.",
"s.s.s.s.s.s.s.s.s.s.s.s.s.s.s.s.s.s.f.L +.&X>X.XU.N.^ B.^ N.B.^ N.N.N.V..X>X>X+.I f.a.s.s.s.s.s.s.s.s.s.s.s.s.s.s.s.s.s.",
"s.s.s.s.s.s.s.s.s.s.s.s.s.s.s.s.s.s.s.0.T E ~ _.>X>X>X%X XOXOX XOXOXOX%X`. .E T 5.s.s.s.s.s.s.s.s.s.s.s.s.s.s.s.s.s.s.s.",
"s.s.s.s.s.s.s.s.s.s.s.s.s.s.s.s.s.s.s.s.0.d d } ......X.X...X.X.} ......X.R d 5.s.s.s.s.s.s.s.s.s.s.s.s.s.s.s.s.s.s.s.s.",
"s.s.s.s.s.s.s.s.s.s.s.s.s.s.s.s.s.s.s.s.s.s.s.s.s.s.s.s.s.s.s.s.s.s.s.s.s.s.s.s.s.s.s.s.s.s.s.s.s.s.s.s.s.s.s.s.s.s.s.s.",
"s.s.s.s.s.s.s.s.s.s.s.s.s.s.s.s.s.s.s.s.s.s.s.s.s.s.s.s.s.s.s.s.s.s.s.s.s.s.s.s.s.s.s.s.s.s.s.s.s.s.s.s.s.s.s.s.s.s.s.s.",
"s.s.s.s.s.s.s.s.s.s.s.s.s.s.s.s.s.s.s.s.s.s.s.s.s.s.s.s.s.s.s.s.s.s.s.s.s.s.s.s.s.s.s.s.s.s.s.s.s.s.s.s.s.s.s.s.s.s.s.s.",
"s.s.s.s.s.s.s.s.s.s.s.s.s.s.s.s.s.s.s.s.s.s.s.s.s.s.s.s.s.s.s.s.s.s.s.s.s.s.s.s.s.s.s.s.s.s.s.s.s.s.s.s.s.s.s.s.s.s.s.s.",
"s.s.s.s.s.s.s.s.s.s.s.s.s.s.s.s.s.s.s.s.s.s.s.s.s.s.s.s.s.s.s.s.s.s.s.s.s.s.s.s.s.s.s.s.s.s.s.s.s.s.s.s.s.s.s.s.s.s.s.s.",
"s.s.s.s.s.s.s.s.s.s.s.s.s.s.s.s.s.s.s.s.s.s.s.s.s.s.s.s.s.s.s.s.s.s.s.s.s.s.s.s.s.s.s.s.p.s.s.s.s.s.s.s.s.s.s.s.s.s.s.s.",
"s.s.s.s.s.s.s.s.s.s.s.s.s.s.s.s.s.s.s.s.s.s.d.m.i.i.i.i.u.s.s.s.s.s.s.s.i.r.m.m.m.m.m.b.t.p.s.s.s.s.s.s.s.s.s.s.s.s.s.s.",
"s.s.s.s.s.s.s.s.s.s.s.s.s.s.s.s.s.s.s.s.s.m.M.n.k.c.z.M.t.s.s.s.s.s.s.s.y.b.m.b.b.b.b.n.m.p.s.s.s.s.s.s.s.s.s.s.s.s.s.s.",
"s.s.s.s.s.s.s.s.s.s.s.s.s.s.s.s.s.s.s.s.s.b.v.z.z.z.z.v.t.s.s.s.s.s.s.s.y.b.n.n.b.b.b.b.b.u.s.s.s.s.s.s.s.s.s.s.s.s.s.s.",
"s.s.s.s.s.s.s.s.s.s.s.s.s.s.s.s.s.s.s.s.p.b.z.z.k.z.z.v.r.s.s.s.s.s.s.p.2.b.n.n.b.b.b.n.r.u.s.s.s.s.s.s.s.s.s.s.s.s.s.s.",
"s.s.s.s.s.s.s.s.s.s.s.s.s.s.s.s.s.s.s.s.p.b.z.z.z.z.z.z.r.s.s.s.s.s.s.p.4.b.b.b.b.b.b.b.r.y.s.s.s.s.s.s.s.s.s.s.s.s.s.s.",
"s.s.s.s.s.s.s.s.s.s.s.s.s.s.s.s.s.s.s.s.s.x.k.z.z.z.z.z.r.s.s.s.s.s.s.p.2.b.b.b.b.b.b.n.b.u.s.s.s.s.s.s.s.s.s.s.s.s.s.s.",
"s.s.s.s.s.s.s.s.s.s.s.s.s.s.s.s.s.s.s.s.d.n.z.z.z.z.z.z.r.p.s.s.s.s.s.p.4.b.b.b.b.b.n.b.r.u.s.s.s.s.s.s.s.s.s.s.s.s.s.s.",
"s.s.s.s.s.s.s.s.s.s.s.s.s.s.s.s.s.s.s.s.d.n.z.z.z.z.z.z.m.s.s.s.s.s.s.p.2.b.b.b.b.b.b.n.b.u.s.p.s.s.s.s.s.s.s.s.s.s.s.s."
};
