/* XPM */
static char *result[] = {
/* columns rows colors chars-per-pixel */
"60 60 237 2 ",
"   c #3D1C23",
".  c #471D2F",
"X  c #452226",
"o  c #492426",
"O  c #4B2529",
"+  c #4A262A",
"@  c #522625",
"#  c #502729",
"$  c #552C2A",
"%  c #5A2E2B",
"&  c #572927",
"*  c #5C302C",
"=  c #562D32",
"-  c #4C333E",
";  c #5B3336",
":  c #52343D",
">  c #5B3439",
",  c #563236",
"<  c #4A2333",
"1  c #62342D",
"2  c #69372D",
"3  c #743A2B",
"4  c #6A3A34",
"5  c #753E38",
"6  c #4E1B16",
"7  c #7D4433",
"8  c #7D443A",
"9  c #7D4735",
"0  c #774331",
"q  c #3D3E55",
"w  c #553842",
"e  c #4F3540",
"r  c #084D7A",
"t  c #305578",
"y  c #68484E",
"u  c #595F79",
"i  c #68667A",
"p  c #67525E",
"a  c #B46E19",
"s  c #83462C",
"d  c #975826",
"f  c #824634",
"g  c #844936",
"h  c #8A4A35",
"j  c #834739",
"k  c #854A3A",
"l  c #8B4C3B",
"z  c #8E513E",
"x  c #93513B",
"c  c #985537",
"v  c #9D4D33",
"b  c #A4542E",
"n  c #AA562E",
"m  c #A65633",
"M  c #AB5932",
"N  c #A55C3D",
"B  c #AA5E3D",
"V  c #A85B34",
"C  c #B65F2F",
"Z  c #BA7225",
"A  c #AC603D",
"S  c #B2633E",
"D  c #BA663E",
"F  c #BC6A3D",
"G  c #B6693C",
"H  c #B36A26",
"J  c #C97829",
"K  c #C26C3D",
"L  c #C36D36",
"P  c #C5713D",
"I  c #D47B30",
"U  c #DC7805",
"Y  c #8B4D42",
"T  c #9E5941",
"R  c #955341",
"E  c #83574F",
"W  c #A45C42",
"Q  c #AA5E43",
"!  c #A95E4A",
"~  c #9A695C",
"^  c #AD6143",
"/  c #AC6148",
"(  c #B46543",
")  c #BA6742",
"_  c #B66845",
"`  c #BB6944",
"'  c #B4654A",
"]  c #B76949",
"[  c #BC6B49",
"{  c #B9674A",
"}  c #8B6E6E",
"|  c #C16B43",
" . c #C26D48",
".. c #C57144",
"X. c #C5714A",
"o. c #D8880C",
"O. c #E99406",
"+. c #FD9D00",
"@. c #F69705",
"#. c #E58A15",
"$. c #F79917",
"%. c #F08F0C",
"&. c #FFA400",
"*. c #FFAC00",
"=. c #FFA90C",
"-. c #FFB200",
";. c #FFBC00",
":. c #DA822C",
">. c #DE8431",
",. c #DD9D35",
"<. c #E58B2B",
"1. c #E68A2A",
"2. c #F49726",
"3. c #E58B32",
"4. c #EA922B",
"5. c #D6B832",
"6. c #FFC400",
"7. c #FFCC00",
"8. c #FFD401",
"9. c #FFDA00",
"0. c #FFD718",
"q. c #FFEB00",
"w. c #FFF00E",
"e. c #D3C137",
"r. c #F7CF35",
"t. c #FFED27",
"y. c #E9B764",
"u. c #FEC972",
"i. c #175682",
"p. c #2D5B85",
"a. c #265A86",
"s. c #355D83",
"d. c #34628B",
"f. c #3A6489",
"g. c #3D6B94",
"h. c #366A96",
"j. c #2C6794",
"k. c #2A6B9B",
"l. c #446C93",
"z. c #466E97",
"x. c #44729C",
"c. c #4A739B",
"v. c #5C7C9D",
"b. c #45688D",
"n. c #70758C",
"m. c #4879A5",
"M. c #557BA3",
"N. c #8B7A87",
"B. c #5C82AA",
"V. c #5C81A4",
"C. c #5C85B2",
"Z. c #6283A5",
"A. c #6485AA",
"S. c #6589AD",
"D. c #6988AB",
"F. c #718CAD",
"G. c #668CB4",
"H. c #728FB2",
"J. c #7B95B4",
"K. c #7395BB",
"L. c #7698BD",
"P. c #7997B9",
"I. c #7291AF",
"U. c #74819A",
"Y. c #7A9CC2",
"T. c #7EA0C0",
"R. c #B28E87",
"E. c #B2908B",
"W. c #829CBD",
"Q. c #829AB5",
"!. c #8A87A0",
"~. c #8BA1BD",
"^. c #C89A8D",
"/. c #CBA298",
"(. c #D5A99A",
"). c #CBA582",
"_. c #D3B1AA",
"`. c #EFBF90",
"'. c #ECC080",
"]. c #819EC1",
"[. c #89A6C7",
"{. c #92AAC6",
"}. c #9BAEC5",
"|. c #94ADCA",
" X c #9AAECB",
".X c #93A6C3",
"XX c #9CB2CC",
"oX c #97B1CB",
"OX c #95B2D1",
"+X c #9CB5D1",
"@X c #9EBAD7",
"#X c #A1B5CD",
"$X c #A8B9CD",
"%X c #A1B6D2",
"&X c #A4BAD4",
"*X c #AABDD4",
"=X c #A4BCDA",
"-X c #AABED9",
";X c #B2BCCF",
":X c #ADC2DB",
">X c #ABC1D8",
",X c #B2C1D6",
"<X c #B4C5DC",
"1X c #BACADD",
"2X c #B8C8DD",
"3X c #B3C6E0",
"4X c #B5CAE2",
"5X c #BCCCE2",
"6X c #BACBE5",
"7X c #BED1E6",
"8X c #ADC6E1",
"9X c #C2CDDE",
"0X c #C1C8D2",
"qX c #C6D1DE",
"wX c #D2C6CA",
"eX c #C2CEE2",
"rX c #C4D2E4",
"tX c #CAD5E5",
"yX c #C4D4EA",
"uX c #CAD6E9",
"iX c #CDDAEB",
"pX c #CDD8E5",
"aX c #D3DBE6",
"sX c #D2DBEB",
"dX c #D9DFEB",
"fX c #D9DFE5",
"gX c #D1DEF0",
"hX c #CDDEF1",
"jX c #DCE2EB",
"kX c #D7E0EC",
"lX c #D9E3F3",
"zX c #E6E8ED",
"xX c #E5EAF2",
"cX c #F4F5F9",
"vX c #F0F0F2",
"bX c #E0DFEA",
"nX c None",
/* pixels */
"nXnXnXnXnXnXnXnXnXnXnXnXnXnX9XrXeXeX1X<X}.tX*XXXtXnXnXrXrXeX5XrXrXrXrXrX#XnXqXrXrXqXrX2X$X%XnXnXnXnXnXnXnXnXnXnXnXnXnXnX",
"nXnXnXnXnXnXnXnXnXnXnXnXnXiX5XeXrXrXrXrXrXrXrX5XrXs.v.rXrX,XXXtXtXtXrXtXJ.t rXtXtXtXrXrXeXrXtXfXnXnXnXnXnXnXnXnXnXnXnXnX",
"nXnXnXnXnXnXnXnXnXnXnX9XQ.v.xXeX1X*X*X*X*X*X5XrXeXd.v.uX*X&XXX,X*X*X*X,XD.i.iX<X,X,X,X1XeXyXeX;Xt nXnXnXnXnXnXnXnXnXnXnX",
"nXnXnXnXnXnXnXnXnXnXnX5XJ.b.,X2X5X{.}.}.oXoX,X1XeXd.M.tX|.XXXXoXXX X X&XD.t yX>X}.XX}.,XeXtXXX.Xz.nXnXnXnXnXnXnXnXnXnXnX",
"nXnXnXnXnXnXnXnXnXnXeXeXzXaXr {.uX{.}.|.|.{.|.XXrXd.V.yX XXX#X|.|. X.X5XP.a.eX*X}.oXXX#X#XlXv.s.*XtXpXnXnXnXnXnXnXnXnXnX",
"nXnXnXnXnXnXnXnX9XeXtXeXtXaX$XA.M.uX2XeXjXaXaXaXlXj.B.cXXX%X%XjXjXjXjXzX.Xi.xXbXkXzX#X#X*Xf.Q.#X$XtXpXeXnXnXnXnXnXnXnXnX",
"nXnXnXnXnXnXnXnXeX1X,XrX<X2XzXJ.x.{.iXrX2X1X1X1X1Xm.G.rX[.|.|.eXeXeXeXeX].g.eXeX1X9XqXXXP.c. X1X*X1X9XtXnXnXnXnXnXnXnXnX",
"nXnXnXnXnXnXnX2XeX<X XeX*X XuX*XL.a.aX*XG.K.K.K.L.L.Y.K.Y.K.K.K.K.K.K.K.L.Y.P.P.L.B.jX}.f.eX2X%XuX;X*XeXaXnXnXnXnXnXnXnX",
"nXnXnXnXnXnXnXs.<XiX2XyX,X|.%XXX+X=Xm.u > w : - w w : - e w e : > y w = e w , w p OXz.~.sX*X#X%X*X$X#X}.lXQ.t nXnXnXnXnX",
"nXnXnXnXnXnXqXJ.D.W.kX*X%X XoX>X3XOXq - & 3 3 s 1 2 3 f 3 f s f & & 2 f f f 3 & < p m.[.;XdX;X#X#X#X*XrXQ.I.I.0XnXnXnXnX",
"nXnXnXnX9X1XsXzXv.M.4X#X%XXX*X-X-Xv.* & # c S D f h c ) K D ) | * & h D D K v 2 & 6 n.Y.Y.dXeX*X#X*X*XeXb.J.rXtXnXnXnXnX",
"nXnXnXnXrX5XsXcXzX}.i.hX-X XuXOXF.@ S j o x B | f h c K D D K | * & h ) D | h h f @ & i Y.Y.:XuXoXtXXXp.#X1X$XeXnXnXnXnX",
"nXnXnXnXeX*X*XjXdXaX#Xl.[.yX[.i w m S h o x B ) f g c F D D D | * & h ) D | h h h Q @ , y Y.[.[.lXV.M.W.uX1X#X9XnXnXnXnX",
"nXnXnXnX9X,X*XrX2XtXdXA.Y.|.u y 3 ..( h o x Q ) 8 f c ) ) D D | * % f | K K f h m  .3 % @ n.H.Y. XI.~.aXrX*XXX9XnXnXnXnX",
"nXnXnXnXrXeXrX5XXX%XsXdX[.r & h D D ( h X x B ) f g c ) D ) D | * & f ) D | s B D | K h & @ n.Y.r 1XzXxX*X}.XX9XnXnXnXnX",
"nXnXnXnXsXrX,X2XuXuXhXhX!.X M A D S h 5 X x B ) 8 g c ) ) D D | * & f ) D ) f B D D K S B # > y x.dXcXjXtXsXsXtXnXnXnXnX",
"nXnXnXnXJ.D.Z.D.P.Y.Q.N.E 3 K S D S f 2 X x W _ 7 g c ) _ ) S | % % f { ) | 7 N ) D D | | & @ = c.[..XQ.W.P.Q.;XnXnXnXnX",
"nXnXnXnXt s.p.p.p.d.f.5 h D D S D D j 2 + x N ) f g c ) ) ) ) | % % f ) D ) s B ) D D D | & @ = s.h.l.g.d.f.t nXnXnXnXnX",
"nXnXnXnX;X-X*X%X=X;XaXwX^.C D D D D j 2 o x B ) ( k c ) ) G ) | % & j ) ) D A ) ) D D ) | # # > v.2XqXaX,X*X*X1XnXnXnXnX",
"nXnXnXnX,X3X6XuXuXiXaXqX^.n l B D ) j 2 X x B ` ` k x ) _ _ _ | % $ j ) ) ) | G S c D | | $ # 1 v.dXzXaX2X,X<XrXnXnXnXnX",
"nXnXnXnX XXX*XsXyX6X X XR.n f N ) ) j 2 O x N ` ) h x ) D ) ) ..1 $ j { ) ) B ( S f S ) | & # ; D.sXsX%XoX#X&X<XnXnXnXnX",
"nXnXnXnX}.}.%XsXyX6X|.#XR.M f M | ) l 4 # R Q ` ) l x ) _ S ) X.1 % k | ) ` s Q S 7 S | | & # ; v.6X5X+X{.>XeX$XnXnXnXnX",
"nXnXnXnX4X4X6XyXuX6XOXXXN.n 4 8 j 8 5 % . Y 8 l ' 8 l ! ! ! / , $ $ 5 / Q Q x W Q N S ) | $ @ > A.3X2X|.>XeXtX1XnXnXnXnX",
"nXnXnXnXsXsXsXiXeX6X-X4X).U H Z H J L H d J Z L <.F J >.>.1.I d d d L 3.I I >.3.I S D ) | & @ , D.5XtX-XtXiXiXtXnXnXnXnX",
"nXnXnXnX1X1X5X<X@X|.OX1Xy.&.*.*.*.&.&.&.&.&.&.*.*.*.*.*.*.*.*.&.*.&.*.*.*.*.*.*.&.L S ) | $ # ; v.8X4X<X4X2X2X9XnXnXnXnX",
"nXnXnXnXf.f.d.p.j.i.p.5 a ;.q.;.*.*.*.*.-.*.9.q.&.*.*.*.*.8.q.*.*.*.*.*.7.q.*.*.*.-.L ( ) & # = s.j.j.d.d.d.s.nXnXnXnXnX",
"nXnXnXnXH.H.L.{.P.W.~.R.,.-.8.;.*.*.-.-.-.-.7.8.*.-.-.-.-.7.8.*.;.;.-.-.6.9.*.*.*.$.D ) | $ # , z.[.].P.H.I.D.;XnXnXnXnX",
"nXnXnXnXuX5XeXxXrXuXxXzXu.+.+.+.+.+.&.&.O.@.+.&.&.+.+.&.+.+.+.&.O.@.@.&.+.+.&.&.$.G ( ) | & # ; A.uXdXeX5XeXtXrXnXnXnXnX",
"nXnXnXnXuX3X*X<X-X=X5XzX(.H L F F L F c 2 A G P P c A ..P ..P ..7 7 c ..B d P P K ( S ) ` $ # ; D.5XeX=X+X1XiXtXnXnXnXnX",
"nXnXnXnXtXeX:X[.OX|.=XzX(.v B ^ Q Q / 8 + Y x ( / 8 g ' / R R  .= $ 7 / ! x / ^ ( ) ) ) | $ # ; A.3X4X+XoX&X>X*XnXnXnXnX",
"nXnXnXnXrXyX5X%X=X%X-XfX/.n A S S _ ( k o z A _ _ k x _ _ R g X.1 * j { ) ) _ S ) ( ) _ | $ O ; A.3X5X+XXXXXoX}.nXnXnXnX",
"nXnXnXnXrX,X=XuXyX4X+X$XR.n S S S _ ^ k X z W ` [ g x _ _ R j  .* $ f { ) _ ( _ ( ) ) ` ` $ # > A.4X5X&X+XXXXX}.nXnXnXnX",
"nXnXnXnXkXiXiXlXgXiX=X:XE.m ^ S A z ^ k X z N ` ] g x ` _ ^ T [ * % 9 ] _ ( ) ) ( _ _ ) ` $ # ; A.8X4XoX|.-X4X<XnXnXnXnX",
"nXnXnXnX~.~.[.L.Y.Y.S.n.~ ( S S A 9 ` l X z W _ ] k x [ _ _ _ [ * % 9 ] ^ / ( _ ( Q ( ` | $ O ; S.7XhX5X<XrXsXuXnXnXnXnX",
"nXnXnXnXp.p.p.d.h.k.f.y k D S ( A 9 / 9 X z W _ [ g z _ _ _ _ X.* $ 9 ' _ P ( ( G P S ) ` $ # ; V.7XiX<X3X,X2XeXnXnXnXnX",
"nXnXnXnXP.K.~.=X<X,XXX_.^.V S S ^ 9 * $ X z ^ _ ] k x ` _ _ _ [ * $ k / <.=.^ ( P *.F ' ` $ # = d.B.c.x.x.g.f.nXnXnXnXnX",
"nXnXnXnX*X*X,XrXlXgXyXlX/.b S S ^ 9   X + Y ^ [ ] k x ] _ _ _ [ * $ 8 3.4.2.S ( _ a <.>.| % # = x.G.C.M.x.B.Z.;XnXnXnXnX",
"nXnXnXnX&X%X+X=X+XOX@XuX/.b S S ^ 9 X X + R c _ [ k x ] _ _ _ [ * * 8 -.4.^ / ( T . *.$.| % # ; S.4X7X@X%X2X7XpXnXnXnXnX",
"nXnXnXnXrX>X&XyX%XOX>XxX(.b S ( A 9 X X o z T _ ] g x _ _ _ ' [ * * 0 -.4.^ _ _ ^ < &.2.| % # > A.4X6X+X7X3X&XjXnXnXnXnX",
"nXnXnXnXtX=X%XgX6X:X@XaX/.V S S ^ 9 g 0 X z ^ _ ] k x ] _ _ _ [ * $ k d :.=.r.r.r.o.3.I ` $ # ; A.8X3X|.@X>X,XaXnXnXnXnX",
"nXnXnXnXyX3X-XuX7X8X@X5X/.M _ ( ^ 9 _ l X z W _ [ g x ] _ _ ] [ * $ R   s o.e.e.5.O.^ _ ` $ # > C.yXiX4X>X5XiXrXnXnXnXnX",
"nXnXnXnXtXyXuXyX-X@X=XyXE.M S ( A 9 _ j X Y ^ _ ] k x _ ' _ ] [ * = R $ $ 1 1 1 * $ S [ | * # ; V.4XaX3X:X2X2XrXnXnXnXnX",
"nXnXnXnXsXsXiXiXyX7XyXyX/.b S ( A 9 ' k X z ^ _ ] k z _ _ _ ] [ * % k T x l k l h g _ [ ..$ # , f.B.m.m.g.g.g.nXnXnXnXnX",
"nXnXnXnXP.K.K.K.Y.Y.K.N.~ S A ( A 9 ' k X x T _ ] k z ] _ _ ] [ * $ 9 X.............[ A x $ $ , l.A.Z.M.G.V.z.F.nXnXnXnX",
"nXnXnXnXf.d.g.g.h.k.b.y l ( Q A W 9 ' 8 + z T ' ' k l ] ' ^ ' [ * = 9 ] ) ^ ' ( ( _ [ j # # $ : B.pXkX6XjXsXrXoXnXnXnXnX",
"nXnXnXnX*X%X,XsX,X<XaXwX^.m B ^ c 7 ^ Y + Y T ^ / g Y ' ^ / ( [ * * 8 ' / ^ ^ ^ ( { | j # $ $ > S.6X7X>X2X,X*X&XnXnXnXnX",
"nXnXnXnXrXyXiXjXrXyXlXcX`.U #.1.:.:.<.J a :.>.4.3.:.:.4.3.<.<.3.Z Z :.3.1.1.4.1.3.Q ) N l $ $ > A.yXrX+X[.XX*X$XnXnXnXnX",
"nXnXnXnXXXoXoX@XOX|.&XvXu.*.;.-.-.-.-.-.-.6.;.-.-.-.-.-.-.6.6.-.;.-.-.-.-.6.-.-.*.I ) [  .% $ > B.iXpX+X+X5XyX*XnXnXnXnX",
"nXnXnXnX#XXX-XyX=XOX=XvXu.*.q.6.&.*.-.*.-.t.6.-.-.-.-.-.-.0.t.*.-.-.-.*.7.t.*.*.*.-.F ` [ * # > D.6X6XXX2XyXeX*XnXnXnXnX",
"nXnXnXnX#X*X5XyX4X=X@XvXu.*.8.-.-.-.-.-.-.9.;.-.-.-.-.-.-.6.8.-.-.-.-.-.6.9.-.-.*.2.F ` ` $ O > A.3X3XXX%X5XeX4XnXnXnXnX",
"nXnXnXnX1XyXkXhXgXyX3XxX'.@.%.O.%.O.#.#.o.#.%.$.$.$.2.$.$.$.%.$.o.#.#.$.$.%.$.$.2.Q N ( | $ # > S.5XyX4X-XeXsXsXnXnXnXnX",
"nXnXnXnX,X<X:X:X:X:X8X;XR.M M c 8 k h 0 # R T ( _ g z _ ^ ^ _ [ 1 ; g ' S ( S S _ | g T ` % # > B.=X>X>X,X-X*X*XnXnXnXnX",
"nXnXnXnXz.x.x.x.m.m.g.y Y A W W R 8 T 8 + Y T ' ' 9 z ' _ ^ _ [ , $ 9 ' ( ' ( ^ ' | g T ` $ O = h.c.c.x.l.F.nXnXnXnXnXnX",
"nXnXnXnXV.B.M.x.H.L.J.} ~ S S ) ^ 9 ] l X x ^ ` _ z z ` _ _ _ [ 1 * k { _ _ c _ ` ` N Q  .% # , g.H.J.I.J. XnXnXnXnXnXnX",
"nXnXnXnXiXiX5X-XjXvXxXcX(.b S ( A k ' k X z T ( [ k z _ _ _ _ [ * $ 0 ] _ [ 7 W ) ) | [ | $ # > B.bXcXzXcXrX*XnXnXnXnXnX",
"nXnXnXnX$X=X%X%X=X=X<XzX(.b S S _ ^ ^ 9 X z k z [ k x _ _ _ [ ..* # X _ ` [ 7 W _ ` ) )  .$ # > B.sXkX,X$X%XXXoXnXnXnXnX",
"nXnXnXnX XoX&X3XOX|.@XaX(.m ^ ( A _ ' g X z 9 9 [ k x [ _ _ _ [ * #   ' ` [ 9 ^ ) ` ` ` | $ # > A.tXeXXX[.$X,XXXnXnXnXnX",
"nXnXnXnXXXoX*XsX-X-X-X<XE.m S S _ G ( 9 X z k z X.l z ^ _ _ _ [ % + + ] _ _ h ^ _ ^ ` ` [ % # > D.-X,X&X%X2XrX*XnXnXnXnX",
"nXnXnXnX#XXX*XiXyXyX7X+XR.M S S S _ / j X z ^ ` [ k k 9 [ ` ` [ * $ 9 ] ` ` ) _ _ 8 G | | $ # > S.XX-X5XrXrXeXnXnXnXnXnX",
"nXnXnXnX1X1X5XuXyXuXyX XR.V B ( S ^ ' k X z N ` _ z 9 9 [ _ [ [ * $ k ] _ _ ` _ ( 7 _ [ ` $ # > G.XX=XrXrXrXeXrXnXnXnXnX"
};
