/* XPM */
static char *result[] = {
/* columns rows colors chars-per-pixel */
"60 60 246 2 ",
"   c #28882A",
".  c #28882C",
"X  c #28892C",
"o  c #29892C",
"O  c #29892D",
"+  c #298A2C",
"@  c #298A2D",
"#  c #2A8A2C",
"$  c #2A8A2D",
"%  c #2A8B2D",
"&  c #29892E",
"*  c #28882F",
"=  c #2A8A2E",
"-  c #2A8A2F",
";  c #2B8C2C",
":  c #298931",
">  c #2A8930",
",  c #2A8931",
"<  c #298A30",
"1  c #2A8A30",
"2  c #2A8A31",
"3  c #2B8A31",
"4  c #2A8A32",
"5  c #2A8A33",
"6  c #2C8B31",
"7  c #2C8C31",
"8  c #2D8C31",
"9  c #2E8D31",
"0  c #2E8F30",
"q  c #2E8E31",
"w  c #2E8F31",
"e  c #2E8F35",
"r  c #309031",
"t  c #319131",
"y  c #319232",
"u  c #329332",
"i  c #349432",
"p  c #359732",
"a  c #379733",
"s  c #379932",
"d  c #379833",
"f  c #379933",
"g  c #389933",
"h  c #369738",
"j  c #369739",
"k  c #36973A",
"l  c #389A3A",
"z  c #3D9F38",
"x  c #38993C",
"c  c #3CA034",
"v  c #3DA134",
"b  c #3DA234",
"n  c #3EA234",
"m  c #3FA334",
"M  c #3FA335",
"N  c #3DA037",
"B  c #3EA038",
"V  c #3FA138",
"C  c #3FA338",
"Z  c #3FA13A",
"A  c #40A434",
"S  c #48AB35",
"D  c #4BAF34",
"F  c #48AC36",
"G  c #40A339",
"H  c #45A73C",
"J  c #44A73E",
"K  c #47A93B",
"L  c #47AB3A",
"P  c #46A93C",
"I  c #47AA3E",
"U  c #48AB3B",
"Y  c #4AAD38",
"T  c #4AAB3F",
"R  c #4EB333",
"E  c #4EB433",
"W  c #4FB433",
"Q  c #4CB134",
"!  c #4CB234",
"~  c #4DB234",
"^  c #4EB234",
"/  c #4EB434",
"(  c #4FB534",
")  c #4CB03A",
"_  c #4DB13A",
"`  c #4DB13B",
"'  c #4EB13B",
"]  c #4DB03D",
"[  c #4DB13D",
"{  c #51B633",
"}  c #51B733",
"|  c #50B534",
" . c #50B535",
".. c #50B634",
"X. c #51B634",
"o. c #51B734",
"O. c #52B734",
"+. c #52B735",
"@. c #50B536",
"#. c #51B636",
"$. c #51B736",
"%. c #51B737",
"&. c #52B637",
"*. c #52B737",
"=. c #52B833",
"-. c #53B833",
";. c #53BB32",
":. c #53BB33",
">. c #54B933",
",. c #54BB33",
"<. c #53BC30",
"1. c #53BC31",
"2. c #54BC30",
"3. c #54BC31",
"4. c #54BC32",
"5. c #52B834",
"6. c #53B834",
"7. c #53B934",
"8. c #52B835",
"9. c #53B835",
"0. c #53B935",
"q. c #51B837",
"w. c #52B836",
"e. c #52B936",
"r. c #53B936",
"t. c #52B837",
"y. c #53B937",
"u. c #53BA36",
"i. c #54B934",
"p. c #54B935",
"a. c #54BA34",
"s. c #55BA34",
"d. c #54BB34",
"f. c #55BB34",
"g. c #54BA35",
"h. c #54BB35",
"j. c #55BB35",
"k. c #55BC34",
"l. c #55BC35",
"z. c #50B538",
"x. c #51B538",
"c. c #50B539",
"v. c #51B539",
"b. c #51B638",
"n. c #51B639",
"m. c #56BD38",
"M. c #379742",
"N. c #369544",
"B. c #379644",
"V. c #369645",
"C. c #389842",
"Z. c #3F9F45",
"A. c #3E9F49",
"S. c #3E9C4E",
"D. c #3E9D4E",
"F. c #3E9C4F",
"G. c #3E9E4E",
"H. c #3F9E4E",
"J. c #3D9B50",
"K. c #3D9B51",
"L. c #3D9A52",
"P. c #3D9B52",
"I. c #3D9B53",
"U. c #3D9C51",
"Y. c #3E9C50",
"T. c #3E9D50",
"R. c #3E9D51",
"E. c #3D9C52",
"W. c #3E9C52",
"Q. c #3E9D52",
"!. c #3E9C53",
"~. c #3F9C53",
"^. c #3E9D53",
"/. c #3F9D53",
"(. c #3F9E53",
"). c #3E9F53",
"_. c #3D9B54",
"`. c #3E9C54",
"'. c #3E9D54",
"]. c #3E9D55",
"[. c #3EA045",
"{. c #3FA146",
"}. c #3FA052",
"|. c #409E51",
" X c #409E53",
".X c #409E54",
"XX c #40A143",
"oX c #41A343",
"OX c #42A242",
"+X c #42A342",
"@X c #43A540",
"#X c #42A441",
"$X c #43A541",
"%X c #42A442",
"&X c #43A542",
"*X c #43A443",
"=X c #44A641",
"-X c #44A542",
";X c #44A543",
":X c #45A743",
">X c #46A743",
",X c #40A145",
"<X c #41A145",
"1X c #41A244",
"2X c #41A245",
"3X c #42A244",
"4X c #42A344",
"5X c #42A345",
"6X c #41A246",
"7X c #40A346",
"8X c #41A346",
"9X c #42A346",
"0X c #42A247",
"qX c #42A347",
"wX c #42A444",
"eX c #43A444",
"rX c #42A445",
"tX c #43A445",
"yX c #43A446",
"uX c #43A447",
"iX c #45A645",
"pX c #45A745",
"aX c #45A446",
"sX c #44A646",
"dX c #45A746",
"fX c #44A647",
"gX c #45A647",
"hX c #47A941",
"jX c #46A942",
"kX c #46A845",
"lX c #48AA40",
"zX c #49AB41",
"xX c #49AC41",
"cX c #42A248",
"vX c #42A348",
"bX c #40A14B",
"nX c #41A24A",
"mX c #43A34A",
"MX c #43A448",
"NX c #43A44A",
"BX c #44A549",
"VX c #45A648",
"CX c #43A24C",
"ZX c #40A14F",
"AX c #41A24E",
"SX c #40A054",
/* pixels */
"f.f.f.f.f.f.f.f.f.f.9./ c c c c c c c c M ZX/.`.`.W.`.L.V.e w 0 w w w w x ,X2X1XOX+XwXqXeXg , , , , , , , S f.f.f.g.f.f.",
"f.f.f.f.f.f.f.f.f.f.9./ c c c c c c c c n bXY._._.^.Q.~.N.* + O O & O o j XX5X5X5X9XqXvX&Xf , , , , , , 6 D f.f.f.a.f.f.",
"f.f.f.f.f.f.f.f.f.f.9./ c c c c c c c c v {.U.P.K.Q.'..XB.: - - 2 1 = $ h oXtXwXrX9X9XvX*Xd , , , , , , q ^ f.f.f.a.f.f.",
"f.f.f.f.f.f.f.f.f.f.8./ c c c c c c c c v Z.I.I.K.Q.^. XB.: 1 4 5 5 , $ j 2XyX4X5X5X5X9X%Xa , , , , , , r | f.f.f.f.f.f.",
"f.f.f.f.f.f.f.f.f.f.8./ c c c c c c c c v [.E.K.J.T.R.|.M.@ - 2 4 5 > $ j <XmXcX9XwXwX9X#Xf , , , , , , y X.f.f.f.f.f.f.",
"f.f.f.f.f.f.f.f.f.f.+.( c c c c c c c c M A.K.P.K.Q.!. XB.< 1 2 2 2 , = k 6XMX0XwX%X%X9XoXi 3 , , , , , u O.f.f.f.f.f.f.",
"f.f.f.f.f.f.f.f.f.f.$.o.c c v b m n n A F CXH.S.F.).].SXC.% ; X . .   # l iXkXdXpXpXpXVX:Xp t 9 8 7 6 9 s 6.f.f.f.f.f.f.",
"f.f.f.f.f.f.f.f.f.f.g.a.7.7.7.7.6.6.a.s.a.b.*.#.%.*.*.*.8.>.-.} =.=.=.7.g.*.&.n.c.z.x.v.b.E { X.W R W ..W a.f.f.f.f.f.f.",
"f.f.f.f.f.f.f.f.f.f.f.a.a.i.7.a.a.a.f.f.f.f.f.f.f.f.f.f.f.f.f.f.f.f.f.f.f.f.f.f.f.f.f.f.f.f.f.f.f.f.f.f.f.f.f.f.f.f.f.f.",
"f.f.f.f.f.f.f.f.f.f.f.f.f.f.f.f.f.f.f.f.f.f.f.f.f.f.f.f.f.f.f.f.f.f.f.f.f.f.f.f.f.f.f.f.f.f.f.f.f.f.f.f.f.f.f.f.f.f.f.f.",
"f.f.f.f.f.f.f.f.f.f.f.f.f.f.f.f.f.f.f.f.f.f.f.f.f.f.f.f.f.f.f.f.f.f.f.f.f.f.f.f.f.f.f.f.f.f.f.f.f.f.f.f.f.f.f.f.f.f.f.f.",
"f.f.f.f.f.f.f.f.f.f.f.f.f.f.f.f.f.f.f.f.f.f.f.f.f.f.f.f.f.f.d.f.f.f.f.f.f.f.f.f.f.f.f.f.f.f.f.f.f.f.f.f.f.f.f.f.f.f.f.f.",
"f.f.f.f.f.f.f.f.f.f.f.f.f.f.f.f.f.f.f.f.f.f.f.f.f.f.f.f.f.f.g.w.g.f.f.f.f.f.f.f.f.f.f.f.f.f.f.f.f.f.f.f.f.f.f.f.f.f.f.f.",
"f.f.f.f.f.f.f.f.f.f.f.f.f.f.f.f.f.f.f.f.f.f.f.f.f.f.f.f.f.f.d.e.r.f.f.f.f.f.f.f.f.f.f.f.f.f.f.f.f.f.f.f.f.f.f.f.f.f.f.f.",
"f.f.f.f.f.f.f.f.f.f.f.f.f.f.f.f.f.f.f.f.f.f.f.f.f.f.f.f.f.f.d.t.q.g.f.f.f.f.f.f.f.f.f.f.f.f.f.f.f.f.f.f.f.f.f.f.f.f.f.f.",
"f.f.f.f.f.f.f.f.f.f.f.f.f.f.f.f.f.f.f.f.f.f.f.f.f.f.f.f.f.f.g.y.u.f.f.f.f.f.f.f.f.f.f.f.f.f.f.f.f.f.f.f.f.f.f.f.f.f.f.f.",
"f.f.f.f.f.f.f.f.f.f.f.f.f.f.f.f.f.f.f.f.f.f.f.f.f.f.f.f.f.f.f.f.f.f.f.f.f.f.f.f.f.f.f.f.f.f.f.f.f.f.f.f.f.f.f.f.f.f.f.f.",
"f.f.f.f.f.f.f.f.f.f.f.f.f.f.f.f.f.f.f.f.f.f.f.f.f.f.f.f.f.f.f.f.f.f.f.f.f.f.f.f.f.f.f.f.f.f.f.f.f.f.f.f.f.f.f.f.f.f.f.f.",
"f.f.f.f.f.f.f.f.f.f.f.f.f.f.f.f.f.f.f.f.f.f.f.f.f.f.f.f.f.f.f.f.f.f.f.f.f.f.f.f.f.f.f.f.f.f.f.f.f.f.f.f.f.f.f.f.f.f.f.f.",
"f.f.f.f.f.f.f.f.f.f.f.f.f.f.f.f.f.f.f.f.f.f.f.f.f.f.f.f.f.f.f.f.f.f.f.f.f.f.f.f.f.f.f.f.f.f.f.f.f.f.f.f.f.f.f.f.f.f.f.f.",
"f.f.f.f.f.f.f.f.f.f.f.f.f.f.f.f.f.f.f.f.f.f.f.f.f.f.f.f.f.f.f.f.f.f.f.f.f.f.f.f.f.f.f.f.f.f.f.f.f.f.f.f.f.f.f.f.f.f.f.f.",
"f.f.f.f.f.f.f.f.f.f.f.f.f.f.f.f.f.f.f.f.f.f.f.f.f.f.f.f.f.f.f.f.f.f.f.f.f.f.f.f.f.f.f.f.f.f.f.f.f.f.f.f.f.f.f.f.f.f.f.f.",
"f.f.f.f.f.f.f.f.f.f.f.f.f.f.f.f.f.f.f.f.f.f.f.f.f.f.f.f.f.f.f.f.f.f.f.f.f.f.f.f.f.f.f.f.f.f.f.f.f.f.f.f.f.f.f.f.f.f.f.f.",
"f.f.f.f.f.f.f.f.f.f.f.f.f.f.f.f.f.f.f.f.f.f.f.f.f.f.f.f.f.f.f.f.f.f.f.f.f.f.f.f.f.f.f.f.f.f.f.f.f.f.f.f.f.f.f.f.f.f.f.f.",
"f.f.f.f.f.f.f.f.f.f.f.f.f.f.f.f.f.f.f.f.f.f.f.f.f.f.f.f.f.f.f.f.f.f.f.f.f.f.f.f.f.f.f.f.f.f.f.f.f.f.f.f.f.f.f.f.f.f.f.f.",
"f.f.f.f.f.f.f.f.f.f.f.f.f.f.f.f.f.f.f.f.f.f.f.f.f.f.f.f.f.f.f.f.f.f.f.f.f.f.f.f.f.f.f.f.f.f.f.f.f.f.f.f.f.f.f.f.f.f.f.f.",
"f.f.f.f.f.f.f.f.f.f.f.f.f.f.f.f.f.f.f.f.f.f.f.f.f.f.f.f.f.f.f.f.f.f.f.f.f.f.f.f.f.f.f.f.f.f.f.f.f.f.f.f.f.f.f.f.f.f.f.f.",
"f.f.f.f.f.f.f.f.f.f.f.f.f.f.f.f.f.f.f.f.f.f.f.f.f.f.f.f.f.f.f.f.f.f.f.f.f.f.f.f.f.f.f.f.f.f.f.f.f.f.f.f.f.f.f.f.f.f.f.f.",
"f.f.f.f.f.f.f.f.f.f.f.f.f.f.f.f.f.f.f.f.f.f.f.f.f.f.f.f.f.f.f.f.f.f.f.f.f.f.f.f.f.f.f.f.f.f.f.f.f.f.f.f.f.f.f.f.f.f.f.f.",
"f.f.f.f.f.f.f.f.f.f.f.f.f.f.f.f.f.f.f.f.f.f.f.f.f.f.f.f.f.f.f.f.f.f.f.f.f.f.f.f.f.f.f.f.f.f.f.f.f.f.f.f.f.f.f.f.f.f.f.f.",
"f.f.f.f.f.f.f.f.f.f.f.f.f.f.f.f.f.f.f.f.f.f.f.f.f.f.f.f.f.f.f.,.1.<.1.:.f.f.f.f.f.f.f.f.f.f.f.f.f.f.f.f.f.f.f.f.f.f.f.f.",
"f.f.f.f.f.f.f.f.f.f.f.f.f.f.f.f.f.f.f.f.f.f.f.f.f.f.f.f.f.f.f.4.<.<.1.:.j.f.f.f.f.f.f.f.f.f.f.f.f.f.f.f.f.f.f.f.f.f.f.f.",
"f.f.f.f.f.f.f.f.f.f.f.f.f.f.f.f.f.f.f.f.f.f.f.f.f.f.f.f.f.f.4.<.<.<.1.:.h.j.f.f.f.f.f.f.f.f.f.f.f.f.f.f.f.f.f.f.f.f.f.f.",
"f.f.f.f.f.f.f.f.f.f.f.f.f.f.f.f.f.f.f.f.f.f.f.f.f.f.f.f.j.k.3.3.2.2.1.;.h.m.j.f.f.f.f.f.f.f.f.f.f.f.f.f.f.f.f.f.f.f.f.f.",
"f.f.f.f.f.f.f.f.f.f.f.f.f.f.f.f.f.f.f.f.f.f.f.f.f.f.f.f.f.f.f.f.f.f.f.f.j.l.j.f.f.f.f.f.f.f.f.f.f.f.f.f.f.f.f.f.f.f.f.f.",
"f.f.f.f.f.f.f.f.f.f.f.f.f.f.f.f.f.f.f.f.f.f.f.f.f.f.f.f.f.f.f.f.f.f.f.f.f.f.f.f.f.f.f.f.f.f.f.f.f.f.f.f.f.f.f.f.f.f.f.f.",
"f.f.f.f.f.f.f.f.f.f.f.f.f.f.f.f.f.f.f.f.f.f.f.f.f.f.f.f.f.f.f.f.f.f.f.f.f.f.f.f.f.f.f.f.f.f.f.f.f.f.f.f.f.f.f.f.f.f.f.f.",
"f.f.f.f.f.f.f.f.f.f.f.f.f.f.f.f.f.f.f.f.f.f.f.f.f.f.f.f.f.f.f.f.f.f.f.f.f.f.f.f.f.f.f.f.f.f.f.f.f.f.f.f.f.f.f.f.f.f.f.f.",
"f.f.f.f.f.f.f.f.f.f.f.f.f.f.f.f.f.f.f.f.f.f.f.f.f.f.f.f.f.f.f.f.f.f.f.f.f.f.f.f.f.f.f.f.f.f.f.f.f.f.f.f.f.f.f.f.f.f.f.f.",
"f.f.f.f.f.f.f.f.f.f.f.f.f.f.f.f.f.f.f.f.f.f.f.f.f.f.f.f.f.f.f.f.f.f.f.f.f.f.f.f.f.f.f.f.f.f.f.f.f.f.f.f.f.f.f.f.f.f.f.f.",
"f.f.f.f.f.f.f.f.f.f.f.f.f.f.f.f.f.f.f.f.f.f.f.f.f.f.f.f.f.f.f.f.f.f.f.f.f.f.f.f.f.f.f.f.f.f.f.f.f.f.f.f.f.f.f.f.f.f.f.f.",
"f.f.f.f.f.f.f.f.f.f.f.f.f.f.f.f.f.f.f.f.f.f.f.f.f.f.f.f.f.f.f.f.f.f.f.f.f.f.f.f.f.f.f.f.f.f.f.f.f.f.f.f.f.f.f.f.f.f.f.f.",
"f.f.f.f.f.f.f.f.f.f.f.f.f.f.f.f.f.f.f.f.f.f.f.f.f.f.f.f.f.f.f.f.f.f.f.f.f.f.f.f.f.f.f.f.f.f.f.f.f.f.f.f.f.f.f.f.f.f.f.f.",
"f.f.f.f.f.f.f.f.f.f.f.f.f.f.f.f.f.f.f.f.f.f.f.f.f.f.f.f.f.f.f.f.f.f.f.f.f.f.f.f.f.f.f.f.f.f.f.f.f.f.f.f.f.f.f.f.f.f.f.f.",
"f.f.f.f.f.f.f.f.f.f.f.f.f.f.f.f.f.f.f.f.f.f.f.f.f.f.f.f.f.f.f.f.f.f.f.f.f.f.f.f.f.f.f.f.f.f.f.f.f.f.f.f.f.f.f.f.f.f.f.f.",
"f.f.f.f.f.f.f.f.f.f.f.f.f.f.f.f.f.f.f.f.f.f.f.f.f.f.f.f.f.f.f.f.f.f.f.f.f.f.f.f.f.f.f.f.f.f.f.f.f.f.f.f.f.f.f.f.f.f.f.f.",
"f.f.f.f.f.f.f.f.f.f.f.f.f.f.f.f.f.f.f.f.f.f.f.f.f.f.f.f.f.f.f.f.f.a.f.f.f.f.f.f.f.f.f.f.f.f.f.f.f.f.f.f.f.f.f.f.f.f.f.f.",
"f.f.f.f.f.f.f.f.f.f.f.f.f.f.f.f.f.f.f.f.f.f.f.f.f.f.f.f.f.f.f.f.f.f.d.f.f.f.f.f.s.a.a.f.f.f.f.f.f.f.f.f.f.f.f.f.f.f.f.f.",
"f.f.f.f.f.f.f.f.f.f.f.f.f.f.f.f.f.f.f.f.f.f.f.f.f.f.f.f.f.f.f.f.f.f.f.f.f.f.f.f.f.f.f.f.f.f.f.f.f.f.f.f.f.f.f.f.f.f.f.f.",
"f.f.f.f.f.f.f.f.f.f.f.f.f.f.f.f.f.f.f.f.f.f.f.f.f.f.f.f.f.f.f.f.f.f.f.f.f.f.f.f.f.f.f.f.f.f.f.f.f.f.f.f.f.f.f.f.f.f.f.f.",
"f.f.f.f.f.f.f.f.f.f.f.f.f.f.f.f.f.f.f.f.f.f.f.f.f.f.f.f.f.f.f.f.f.f.f.f.f.f.f.f.f.f.f.f.f.f.f.f.f.f.f.f.f.f.f.f.f.f.f.f.",
"f.f.f.f.f.f.f.f.f.f.f.f.f.f.f.f.f.f.f.f.f.f.f.f.f.f.f.f.f.f.f.f.f.f.f.f.f.f.f.f.a.a.0.9.p.f.f.f.f.f.f.f.f.f.f.f.f.f.f.f.",
"f.f.f.f.f.f.f.f.f.f.f.f.f.f.f.f.f.f.f.f.s.' ) _ _ ` [ ] @.f.f.f.f.f.f.a.Y I T xXzXhX>XaXlXO.f.f.f.f.f.f.f.f.s.f.f.f.f.f.",
"f.f.f.f.f.f.f.f.f.f.f.f.f.f.f.f.f.f.f.f.7.NXG.D.D.}.(.SXU f.f.f.f.f.f.a.G uXgXfXsXsXsXBXjX..f.f.f.f.f.f.f.f.f.f.f.f.f.f.",
"f.f.f.f.f.f.f.f.f.f.f.f.f.f.f.f.f.f.f.f.6.8XK.P.K.Q.!. XU f.f.f.f.f.f.a.C 6XMX0XwX%X%X9X$X| f.f.f.f.f.f.f.f.f.f.f.f.f.f.",
"f.f.f.f.f.f.f.f.f.f.f.f.f.f.f.f.f.f.f.f.5.oXE.K.J.T.R.|.L f.f.f.f.f.f.i.V <XmXcX9XwXwX9X@X( f.f.f.f.f.f.f.f.f.f.f.f.f.f.",
"f.f.f.f.f.f.f.f.f.f.f.f.f.f.f.f.f.f.f.f.5.3XI.I.K.Q.^. XK f.f.f.f.f.f.7.B 2XyX4X5X5X5X9X$X^ f.f.f.f.f.f.f.f.f.f.f.f.f.f.",
"f.f.f.f.f.f.f.f.f.f.f.f.f.f.f.f.f.f.f.f.O.7XU.P.K.Q.'..XP f.f.f.f.f.f.6.N oXtXwXrX9X9XvX-X~ f.f.f.f.f.f.f.f.f.f.f.f.f.f.",
"f.f.f.f.f.f.f.f.f.f.f.f.f.f.f.f.f.f.f.f.o.nXY._._.^.Q.~.H f.f.f.f.f.f.} z XX5X5X5X9XqXvX=X! f.f.f.f.f.f.f.f.f.f.f.f.f.f.",
"f.f.f.f.f.f.f.f.f.f.f.f.f.f.f.f.f.f.f.f. .AX/.`.`.W.`.L.J f.f.f.f.f.f.o.Z ,X2X1XOX+XwXqX;XQ f.f.f.f.f.f.f.f.f.f.f.f.f.g."
};
