/* XPM */
static char *_780c85bb8f64aa4c69498a3dac514193AGXjZ911s4eiest[] = {
/* columns rows colors chars-per-pixel */
"60 60 243 2 ",
"   c #000101",
".  c #0F0502",
"X  c #130506",
"o  c #141512",
"O  c #270C04",
"+  c #281903",
"@  c #2C2303",
"#  c #3C0030",
"$  c #551115",
"%  c #6F1B18",
"&  c #593901",
"*  c #502605",
"=  c #692803",
"-  c #7D2807",
";  c #79291A",
":  c #7D3318",
">  c #783B0B",
",  c #4C002E",
"<  c #4B022B",
"1  c #53012C",
"2  c #5A052B",
"3  c #51082E",
"4  c #5E092A",
"5  c #570625",
"6  c #5C142B",
"7  c #57192B",
"8  c #4A0032",
"9  c #560A31",
"0  c #551C32",
"q  c #4C1C2E",
"w  c #610C29",
"e  c #620E25",
"r  c #6D1B24",
"t  c #64142B",
"y  c #671727",
"u  c #721C25",
"i  c #651631",
"p  c #5B2A2C",
"a  c #5A242C",
"s  c #59392D",
"d  c #522E33",
"f  c #523534",
"g  c #4B3C37",
"h  c #68252C",
"j  c #752224",
"k  c #772927",
"l  c #70332A",
"z  c #2B571C",
"x  c #5D4002",
"c  c #6C4E0A",
"v  c #796C16",
"b  c #58472E",
"n  c #58562F",
"m  c #4E5634",
"M  c #504C32",
"N  c #684529",
"B  c #714F30",
"V  c #59682F",
"C  c #5A622F",
"Z  c #586930",
"A  c #587A30",
"S  c #4D6536",
"D  c #447B46",
"F  c #5E6260",
"G  c #822C05",
"H  c #883705",
"J  c #963901",
"K  c #85341E",
"L  c #8B3B1C",
"P  c #893C17",
"I  c #88341A",
"U  c #873524",
"Y  c #811800",
"T  c #944C0D",
"R  c #9A4603",
"E  c #9C5408",
"W  c #8C4212",
"Q  c #844317",
"!  c #934612",
"~  c #954916",
"^  c #8E520E",
"/  c #A65A03",
"(  c #AD5A1F",
")  c #A85918",
"_  c #B15F1C",
"`  c #A34A11",
"'  c #9C7F0A",
"]  c #846509",
"[  c #AC6A02",
"{  c #A96404",
"}  c #B26D02",
"|  c #B8690C",
" . c #B97503",
".. c #B76618",
"X. c #BA791B",
"o. c #A86D15",
"O. c #964622",
"+. c #9B5320",
"@. c #9A552C",
"#. c #884C2B",
"$. c #A14E21",
"%. c #A95820",
"&. c #AC6722",
"*. c #827122",
"=. c #CB7E05",
"-. c #CA7D0A",
";. c #C37909",
":. c #C06E16",
">. c #C97B16",
",. c #CF7A0D",
"<. c #967643",
"1. c #A8764A",
"2. c #85696B",
"3. c #29892E",
"4. c #2B8A31",
"5. c #339332",
"6. c #379836",
"7. c #3CA034",
"8. c #3FA03A",
"9. c #499F2C",
"0. c #47843B",
"q. c #588931",
"w. c #569A33",
"e. c #4E8B30",
"r. c #669325",
"t. c #5BAC2E",
"y. c #49A838",
"u. c #55A333",
"i. c #55AD33",
"p. c #58AE31",
"a. c #4EB334",
"s. c #4DB13C",
"d. c #54B434",
"f. c #55BB34",
"g. c #59B130",
"h. c #389844",
"j. c #3E9C53",
"k. c #3F9051",
"l. c #3FA04A",
"z. c #418B4A",
"x. c #409E53",
"c. c #479B46",
"v. c #42A344",
"b. c #42A24A",
"n. c #47AA41",
"m. c #40A054",
"M. c #BC801B",
"N. c #CE8205",
"B. c #C98507",
"V. c #D48A03",
"C. c #DC8B02",
"Z. c #D68708",
"A. c #DD9301",
"S. c #D89A08",
"D. c #CC8010",
"F. c #DE8B19",
"G. c #D68618",
"H. c #D99A14",
"J. c #E59B01",
"K. c #E99C02",
"L. c #E49601",
"P. c #E18E18",
"I. c #E08713",
"U. c #EB9C16",
"Y. c #E39318",
"T. c #E79818",
"R. c #E38E00",
"E. c #ECA201",
"W. c #E8A609",
"Q. c #F3A500",
"!. c #F3AB02",
"~. c #EDB60C",
"^. c #F6BD0C",
"/. c #F9B402",
"(. c #EEAB14",
"). c #EAA917",
"_. c #F4A416",
"`. c #F3AD14",
"'. c #EAB914",
"]. c #F5B713",
"[. c #C58B2C",
"{. c #D8A936",
"}. c #F4BC23",
"|. c #EAB232",
" X c #FAC40D",
".X c #FDCB0F",
"XX c #F9C50A",
"oX c #FFD10E",
"OX c #FFDA0D",
"+X c #FAC410",
"@X c #FDCD11",
"#X c #F7C910",
"$X c #FDD311",
"%X c #FDD614",
"&X c #E7C50C",
"*X c #FFE90B",
"=X c #FCD125",
"-X c #FCD52B",
";X c #F3CD37",
":X c #FFE834",
">X c #B58C4A",
",X c #C59948",
"<X c #CCA84D",
"1X c #D9B343",
"2X c #CDA951",
"3X c #D0AD51",
"4X c #D6B651",
"5X c #D0AD4F",
"6X c #E6B24F",
"7X c #C7A16D",
"8X c #ECDA5A",
"9X c #F7DB51",
"0X c #FBE75B",
"qX c #FFF95C",
"wX c #FEF65C",
"eX c #FFF461",
"rX c #FFFE63",
"tX c #FFFF6C",
"yX c #FDF26C",
"uX c #E1D05E",
"iX c #758086",
"pX c #8B8E8D",
"aX c #9FA3A0",
"sX c #A9A1A3",
"dX c #CEB093",
"fX c #CBB7BC",
"gX c #C79F83",
"hX c #BFC1BC",
"jX c #E9CA8B",
"kX c #D7C8B4",
"lX c #EAD5A5",
"zX c #EBD8B1",
"xX c #F9E7AF",
"cX c #CBBBC6",
"vX c #BDC3C1",
"bX c #CED1CF",
"nX c #DEE4DE",
"mX c #EDF5F6",
"MX c #F1FAFC",
"NX c #FCFFFE",
"BX c #F1F8F6",
"VX c #E5ECEB",
"CX c #E1DBDB",
/* pixels */
"f.f.f.f.f.f.f.f.f.f.a.a.8.7.7.7.7.6.7.7.7.m.m.j.j.j.j.j.h.4.4.5.5.4.5.3.6.l.v.v.v.v.v.v.v.6.3.4.4.4.4.4.4.y.d.f.f.f.f.f.",
"f.f.f.f.f.f.f.f.f.f.f.a.7.7.7.7.7.7.7.7.7.b.l.j.j.j.j.j.h.4.3.4.3.3.3.3.6.l.v.v.v.v.v.b.v.6.3.4.4.3.4.3.4.y.f.f.f.f.f.f.",
"f.f.f.f.f.f.f.f.f.f.f.a.7.7.7.7.7.7.7.7.7.b.k.j.j.j.j.x.h.3.4.3.4.4.3.3.6.l.v.v.v.b.v.b.v.6.4.4.4.4.4.3.4.a.f.f.f.f.f.f.",
"f.f.f.f.f.f.f.f.f.f.f.a.7.7.7.7.7.7.7.7.7.h.j.j.j.j.j.x.h.4.4.4.4.4.3.3.6.v.v.v.v.v.v.v.v.5.4.4.4.4.4.4.5.a.f.f.f.f.f.f.",
"f.f.f.f.f.f.f.f.f.f.f.a.7.7.7.7.7.7.7.7.7.l.j.D 0 9 3 9 8 3 3 3 3 3 3 3 9 9 M v.v.v.y.b.v.6.4.4.4.4.4.4.5.d.f.f.f.f.f.f.",
"f.f.f.f.f.f.f.f.f.f.a.a.7.7.7.7.7.7.7.e.A 5.z.m r r u j j j u j u j k k k l b 0.z.0.z.b.v.5.4.4.4.4.4.4.5.a.f.f.f.f.f.f.",
"f.f.f.f.f.f.f.f.f.f.a.a.7.7.7.7.7.7.7.S 0 0 q h T / -.N.N.-.N.N.N.N.H.'.;XuX1.q 7 q M c.y.5.5.4.4.4.5.4.5.f.f.f.f.f.f.f.",
"f.f.f.f.f.f.f.f.f.f.f.f.f.f.a.f.a.d.i.n 4 t 4 k }  .K.E.E.E.E.E.E.!.XX%X:XtX,X6 t u s w.i.a.a.d.a.a.a.a.a.f.f.f.f.f.f.f.",
"f.f.f.f.f.f.f.f.f.f.f.f.f.f.d.f.d.Z d : E { ;.V.'.&X^.+X^. X^.^. X^. X.X@X%X;X4X4XuX>Xp n i.f.f.f.f.f.f.f.f.f.f.f.f.f.f.",
"f.f.f.f.f.f.f.f.f.f.f.f.f.f.f.f.d.n 1 I [ B.K.!.@X$X$X@X@X@X$X@X@X@X@X.X.X X-XeXwXrX5Xt d i.f.f.f.f.f.f.f.f.f.f.f.f.f.f.",
"f.f.f.f.f.f.f.f.f.f.f.f.f.f.d.Z p +.-.=.V.=.} =.E.E.J.E. X.X@X@X+X.X.X.X.X X-XyX9XW.F.=.) s b i.f.f.f.f.f.f.f.f.f.f.f.f.",
"f.f.f.f.f.f.f.f.f.f.f.f.f.f.i.b 4 { !.L.E.=.E / C.C.C.C. X@X.X.X.X.X.X@X.X X-XyX;XC.C.K.;.e 6 u.f.f.f.f.f.f.f.f.f.f.f.f.",
"f.f.f.f.f.f.f.f.f.f.f.f.f.f.d.b 4 _ E.N.} ,XkXlXlXlXlXlX).E. X.X.X+X.X.X@X@X+X(.6XlXlXxXgX9 7 i.f.f.f.f.f.f.f.f.f.f.f.f.",
"f.f.f.f.f.f.f.f.f.f.f.f.f.f.d.n 3 ../.=.J 7XBXBXMXMXMXMXT.C. X$X.X@X.X.X@X%X/.=.6XmXMXNXfX2 $ i.f.f.f.f.f.f.f.f.f.f.f.f.",
"f.f.f.f.f.f.f.f.f.f.f.f.d.A n #./ ^ x <.dXkXMXMXMXMXMXMXjXjX).~.+X@X.X.XW.B.{.jXzXMXMXNXbXsX2.z z a.f.f.f.f.f.f.f.f.f.f.",
"f.f.f.f.f.f.f.f.f.f.f.f.g.b w | !.& . iXNXMXMXMXmXMXBXBXMXmX|.L.@XOXOXOXS./ 7XNXMXMXMXMXmXmXbXo   9.f.f.f.f.f.f.f.f.f.f.",
"f.f.f.f.f.f.f.f.f.f.f.f.i.b w | E.&   F mXmXMXMXmXMXMXMXMXMX[.} ' ' ' ' ] = <.dXbXmXMXNXnXpXF o   9.f.f.f.f.f.f.f.f.f.f.",
"f.f.f.f.f.f.f.f.f.f.f.f.i.b 2 ..E.& o F nXVXMXMXmXMXMXMXMXBXO.G .           O Y 1.mXNXNXsXo o     9.f.f.f.f.f.f.f.f.f.f.",
"f.f.f.f.f.f.f.f.f.f.f.w.A N U -.!.x . F aXvXVXmXMXmXcXcXcXfX&.R +           * { 1.kXcXbXpXo       9.f.f.f.f.f.f.f.f.f.f.",
"f.f.f.f.f.f.f.f.f.f.i.a w | !.^.$Xc       F bXVXNXCX9 5 5 5 -.J.+           n tX|.G $             9.f.f.f.f.f.f.f.f.f.f.",
"f.f.f.f.f.f.f.f.f.f.i.p 4 | K.^.#Xc       m sXbXCXfXk r u ; Z.W.& @ @ @ @ @ *.qX|.&.> O .     X o 9.f.f.f.f.f.f.f.f.f.f.",
"f.f.f.f.f.f.f.f.f.f.i.p 4 | E.^.OXx           O H E C.A.C.C.^..X#X.X#XoXoXXX.X.X=XeX1XR =     5 6 u.f.f.f.f.f.f.f.f.f.f.",
"f.f.f.f.f.f.f.f.f.f.i.p 4 | E./.%Xv @ .       O - J A.J.J.E. X.X#X#X&X'.~.#XXXXX=XrX1X` = + + 4 e u.f.f.f.f.f.f.f.f.f.f.",
"f.f.f.f.f.f.f.f.f.f.i.p 4 | Q.~.%X&X&Xc       o 5 ; Z.J.^. X.X.XB.} L i ^  .S.oX-XeX1XH R N. .r w w.f.f.f.f.f.f.f.f.f.f.",
"f.f.f.f.f.f.f.f.f.f.g.p w ..E.~..X#XOX] . X . O , u Z.J. X.X.X X} E r < ; / B.XX=XeX1XG R L.V.h 7 u.f.f.f.f.f.f.f.f.f.f.",
"f.f.f.f.f.f.f.f.f.f.d.a w T B.A.!._ l ; = = = % 1 u V.L. X.X!.W.U t ; - % y +.!.}.rX2Xr e K l A q.g.f.f.f.f.f.f.f.f.f.f.",
"f.f.f.f.f.f.f.f.f.f.g.p w W [ B.A.K # % R J R H 2 u Z.J. X.XL.V.u 1 - R % 8 O.R.).qX<Xw 5 1 0 i.f.f.f.f.f.f.f.f.f.f.f.f.",
"f.f.f.f.f.f.f.f.f.f.f.q.A l ; ; K W T T / R H : 2 y Z.L. X X+.K &.....>.| ..$.: ) }.[.w a A q.d.f.f.f.f.f.f.f.f.f.f.f.f.",
"f.f.f.f.f.f.f.f.f.f.f.f.f.N 1 , 3 Q  .[ } E J - 2 r V.L. X+Xu 1 >._.T.T.T._.%.# k K.;.w s d.f.f.f.f.f.f.f.f.f.f.f.f.f.f.",
"f.f.f.f.f.f.f.f.f.f.f.n s N T ^ ! / {  .G.>.D.) 2 r V.J..X.Xk 2 >.T._.].].^.X.8 K E.:.w 6 s n d.f.f.f.f.f.f.f.f.f.f.f.f.",
"f.f.f.f.f.f.f.f.f.f.d.7 4 !  .[  .{ { >.T.Y._.X.1 t C.E.@X$Xj 1 >.T.].OX$XOX>.8 K Q.;.5 1 4 i g.f.f.f.f.f.f.f.f.f.f.f.f.",
"f.f.f.f.f.f.f.f.f.b s Q T ;.V.! r T [ ;.Y.P.Y.F..._ K K O.O.&...G.Y.]..X@XOXX.1 e I +.<X1.t t c v g.f.f.f.f.f.f.f.f.f.f.",
"f.f.f.f.f.f.f.f.f.t 4 E [ A.!.K 8 P {  .T.Y.F.Y._.G.1 8 8 , >.U.F.F.]..X@XOXX.8 < # #.yX4Xi 4 - - g.f.f.f.f.f.f.f.f.f.f.",
"f.f.f.f.f.f.f.f.f.6 w | N.) W W P o.B.G.Y.Y.Y.Y.Y.F.&.) ) ( F.Y.(.].+X@X.X.XH.%.%.` X.wX4X6 i [.{.*.v f.f.f.f.f.f.f.f.f.",
"f.f.f.f.f.f.f.f.f.6 w N.J.U 8 W  .D.T.Y.Y.F.F.F.F.F.F.Y.Y.P.P.P.+X@X.X.X@X.X(.F.P.I.|.wX3X6 h 8X0XE H f.f.f.f.f.f.f.f.f.",
"f.f.f.f.f.f.f.f.f.6 w N.J.U 1 ! } >.T.Y.F.T.(.(.(.(.(.(.`.(.(.(.+X.X.X.X@X@X^.`.(.(.}.wX3Xw h 8X0XE H f.f.f.f.f.f.f.f.f.",
"f.f.f.f.f.f.f.f.f.6 e -.J.K 1 W } D.T.F.F.(..X.X.X.X.X.X.X.X.X.X.X.X.X.X+X.X.X.X.X.X=XqX3X4 h 8X0XE H f.f.f.f.f.f.f.f.f.",
"f.f.f.f.f.f.f.f.f.6 w =.J.P 4 T [ D.T.Y.F.(..X.X.X@X.X.X.X.X.X+X.X.X.X.X.X.X.X.X.XXX=XwX3X6 j 6X9XW > f.f.f.f.f.f.f.f.f.",
"f.f.f.f.f.f.f.f.f.6 e -.K./ H E [ D.Y.Y.F.)..X.X.X.X.X.X.X.X.X.X.X.X.X.X@X.X.X.X.XXX=XqX3X6 y C.L.u 2 f.f.f.f.f.f.f.f.f.",
"f.f.f.f.f.f.f.f.f.6 w ;.A./ R E / -.Y.Y.T.(..X@X.X.X@X.X.X.X.X.X#X.X.X@X.X.X.X+X.XXX=XqX3Xi e  .;.l s f.f.f.f.f.f.f.f.f.",
"f.f.f.f.f.f.f.f.f.6 4 E [ V.J./ - :.U.`.oX.X.X.X+X.X+X.X.X.X.X@X+X.X.X.X.X.X.XXX.XXX=XqX3Xi 2 4 4 u.f.f.f.f.f.f.f.f.f.f.",
"f.f.f.f.f.f.f.f.f.p a T { B.R./ J :.G.W.oX.X.X.X.X.X.X.X+X.X.X.X.X.X.X@X.X.X.X.X.XoX-XqX2Xt 5 7 p u.f.f.f.f.f.f.f.f.f.f.",
"f.f.f.f.f.f.f.f.f.d.p.p 4 T  .N.R.{ H B.$X.X.X.X.X.X.X.X.X.X.X.X.X.X.X.X.X.X.XXX%X0X0XrX3Xt 7 w.d.f.f.f.f.f.f.f.f.f.f.f.",
"f.f.f.f.f.f.f.f.f.u.w.h y W { N.K.` = ;.$X.X.X@X.X@X.X.X@X.X+X.X@X.X.X.X.X.X.X.X-X0X8X8X,Xr a p.f.f.f.f.f.f.f.f.f.f.f.f.",
"f.f.f.f.f.f.f.f.f.p p ..G.U 6 | Q.~ 1 ( ).`.@X.X.X.X+X.X@X.X.X.X.X.X.X.X.X.X=X9X0XrX4Xl l H H i.f.f.f.f.f.f.f.f.f.f.f.f.",
"f.f.f.f.f.f.f.f.f.4 i F._.U < ..K.L 8 O.P.(..X.X.X.X.X.X.X.X.X.X.X.X+X.X X X-XyX0X0X,Xq $ W ^ p.f.f.f.f.f.f.f.f.f.f.f.f.",
"f.f.f.f.f.f.f.f.f.i w >.U.U < j I y 1 $.Y._..X.XoXoX.XoXoXoXoXoXoX.X].U._.U.;XeX5X@.B A q.r.r.f.f.f.f.f.f.f.f.f.f.f.f.f.",
"f.f.f.f.f.f.f.f.f.6 w >.U.U < 1 , 1 2 $.Y.(..X@XoX.XoX.X@XoX.X.X.X@X).F.I.G.|.rX,X< b d.f.f.f.f.f.f.f.f.f.f.f.f.f.f.f.f.",
"f.f.f.f.f.f.f.f.f.A Z #.L %._ ~ ! u 1 $.Y.`.OX).) +.+.+.+.+.+.+.+.+.O.U ) ;.{.qX<X4 s i.f.f.f.f.f.f.f.f.f.f.f.f.f.f.f.f.",
"f.f.f.f.f.f.f.f.f.f.f.0 2 :.].V.} : , $.Y.`.*XH.2 < , , 1 1 , 1 1 1 , 1 P [ [.rX2X4 s i.f.f.f.f.f.f.f.f.f.f.f.f.f.f.f.f.",
"f.f.f.f.f.f.f.f.f.f.d.A C #.+.L : r 1 $._.>.o.*.C V V V V V V V V V V V N K X.-X[.4 s p.f.f.f.f.f.f.f.f.f.f.f.f.f.f.f.f.",
"f.f.f.f.f.f.f.f.f.f.f.f.i.s 2 2 2 2 1 $._.%.1 f p.f.f.f.f.f.f.f.f.f.f.f.C 1 W E.| w s i.f.f.f.f.f.f.f.f.f.f.f.f.f.f.f.f.",
"f.f.f.f.f.f.f.f.f.f.f.f.d.A n C n a 2 $._.( 4 f y.s.s.s.a.f.f.f.f.f.f.d.m 1 W Q.| w f c.n.f.f.f.f.f.f.f.f.f.f.f.f.f.f.f.",
"f.f.f.f.f.f.f.f.f.f.f.f.f.d.i.f.f.n 8 O._._ w f z.j.x.m.s.f.f.f.f.f.f.d.m 2 ~ /.| 1 g b.n.a.f.f.f.f.f.f.f.f.f.f.f.f.f.f.",
"f.f.f.f.f.f.f.f.f.f.f.f.f.f.f.w.A B U _ _.( 4 d k.j.j.j.y.f.f.f.f.f.f.d.m 2 L R.| L N S 0.a.f.f.f.f.f.f.f.f.f.f.f.f.f.f.",
"f.f.f.f.f.f.f.f.f.f.f.f.f.f.i.n 7 %.U.P.U.%.2 f k.j.j.j.y.f.f.f.f.f.d.d.m 2 : [  .K...6 f u.f.f.f.f.f.f.f.f.f.f.f.f.f.f.",
"f.f.f.f.f.f.f.f.f.f.f.f.f.f.d.b 4 _ _.T.`.&.w f z.j.j.x.n.f.f.f.f.f.f.d.m 2 ; {  ./.X.y d 9.f.f.f.f.f.f.f.f.f.f.f.f.f.f.",
"f.f.f.f.f.f.f.f.f.f.f.f.f.f.i.s 4 %.U.(.*XX.4 0 z.j.j.x.y.f.f.f.f.f.f.d.m 4 ; / B.OXM.4 d w.f.f.f.f.f.f.f.f.f.f.f.f.f.f.",
"f.f.f.f.f.f.f.f.f.f.f.f.f.f.i.s 4 t k k k 4 4 d k.j.j.j.n.f.f.f.f.f.f.d.m 4 4 w y e 4 4 b y.f.f.f.f.f.f.f.f.f.f.f.f.f.f.",
"f.f.f.f.f.f.f.f.f.f.f.f.f.f.f.i.6 4 4 2 4 4 6 j.j.j.j.j.v.f.f.f.f.f.f.f.8.m 4 4 4 4 w 7 v.a.f.f.f.f.f.f.f.f.f.f.f.f.f.f."
};
