/* XPM */
static char *result[] = {
/* columns rows colors chars-per-pixel */
"60 60 143 2 ",
"   c #123627",
".  c #16362B",
"X  c #1A362C",
"o  c #153A2D",
"O  c #19382F",
"+  c #173B30",
"@  c #1D3E32",
"#  c #222C26",
"$  c #2B2C27",
"%  c #242E2B",
"&  c #2C2E2B",
"*  c #283127",
"=  c #223D26",
"-  c #293A27",
";  c #25322C",
":  c #2A322C",
">  c #253A2C",
",  c #283A2A",
"<  c #242F30",
"1  c #263632",
"2  c #2A3632",
"3  c #253B34",
"4  c #2A3B35",
"5  c #263F39",
"6  c #2B3D38",
"7  c #303734",
"8  c #303D36",
"9  c #313E3A",
"0  c #1F4034",
"q  c #1F4538",
"w  c #195337",
"e  c #1D543B",
"r  c #1C5D3E",
"t  c #24432F",
"y  c #28402F",
"u  c #254335",
"i  c #2B4236",
"p  c #264C36",
"a  c #294B36",
"s  c #25443A",
"d  c #2B443B",
"f  c #264C3B",
"g  c #294B3C",
"h  c #304137",
"j  c #33423B",
"k  c #38413D",
"l  c #215036",
"z  c #255A35",
"x  c #23543D",
"c  c #2C513E",
"v  c #255B3C",
"b  c #295A3E",
"n  c #30503F",
"m  c #2F663C",
"M  c #34623C",
"N  c #1A4F42",
"B  c #1D5343",
"V  c #1E5E40",
"C  c #214746",
"Z  c #2D4740",
"A  c #234D42",
"S  c #2B4C42",
"D  c #224648",
"F  c #234A4A",
"G  c #374140",
"H  c #394040",
"J  c #334E44",
"K  c #384F44",
"L  c #374F48",
"P  c #235342",
"I  c #2C5343",
"U  c #255A43",
"Y  c #2C5945",
"T  c #255F49",
"R  c #2D5B49",
"E  c #325244",
"W  c #395145",
"Q  c #305946",
"!  c #335148",
"~  c #385649",
"^  c #335D4D",
"/  c #365F51",
"(  c #1F6445",
")  c #1E6A47",
"_  c #1E6A49",
"`  c #246446",
"'  c #2A6245",
"]  c #236946",
"[  c #2A6A45",
"{  c #266449",
"}  c #2A634A",
"|  c #23694A",
" . c #2B6B4D",
".. c #306244",
"X. c #34614E",
"o. c #39624E",
"O. c #306D49",
"+. c #3E684F",
"@. c #2D7545",
"#. c #2B754C",
"$. c #2A7E4E",
"%. c #216E50",
"&. c #2D6E53",
"*. c #366150",
"=. c #3B6551",
"-. c #356C52",
";. c #3C6A53",
":. c #326E58",
">. c #3D6B59",
",. c #247551",
"<. c #2B7454",
"1. c #267E55",
"2. c #297E56",
"3. c #2D7658",
"4. c #2B7C5A",
"5. c #347052",
"6. c #3B7156",
"7. c #33725A",
"8. c #3F735A",
"9. c #307B5D",
"0. c #327D61",
"q. c #42664F",
"w. c #40684F",
"e. c #416651",
"r. c #416954",
"t. c #446E5B",
"y. c #486B5D",
"u. c #42735C",
"i. c #4A705F",
"p. c #4A7160",
"a. c #1E8557",
"s. c #1E8559",
"d. c #23864D",
"f. c #28834E",
"g. c #21884D",
"h. c #258256",
"j. c #2A8056",
"k. c #238A51",
"l. c #24845A",
"z. c #2B825B",
"x. c #32845F",
"c. c #2E8461",
"v. c #338262",
/* pixels */
"M M M M M M m @.f.g.d.d.d.g.g.f.z = - - , > - - 3 s A B B B B B N B %.l.l.a.a.a.a.a.h.5.+.q.e.q.q.q.q.e.S C F F F F F D ",
"M M M M M M m @.d.d.d.d.d.g.g.$.z = , , - - - > 4 s P P B B B P B B %.l.l.a.s.s.a.s.1.5.+.q.q.q.q.q.q./ ! C F F F F F F ",
"M M M M M M m @.d.g.d.g.d.g.g.f.z = - - , , - > > g P B P B B F N B %.l.l.a.a.k.a.a.1.5.+.q.+.q.q.q.e.=.I F F F F F F F ",
"M M M M b M m @.d.g.g.d.d.g.g.$.z y - - - , - > 4 p A B B B P B B B %.z.l.s.a.a.a.a.1.5.+.e.q.q.e.q.e.o.! N F F F F F F ",
"M M M M M M M @.k.g.g.g.g.g.k.2.v = - - - > > , 3 s P B P P N P N B %.l.l.a.s.a.s.s.1.5.;.e.q.q.e.e.r.*.F D F F F F F F ",
"M M M M M M M @.f.k.f.f.f.d.j.$.z t - - = t > > 3 p f P P B P P B B | l.l.l.l.h.s.s.2.5.+.=.+.+.+.e.;.*.R N F C F F F N ",
"' m ' ....' m [ #.#.#.#.#.#.#.O.z t y y u t t u u c I P P P P P P P { ,.2.,.,.,.,.%.,.-.;.;.;.;.;.;.>.;.R P U B B P P B ",
"' ' ' ' ' ' ' ' v v v b v v b b g a a a p p p p f Y T ! R ! R R R U P V m V V r r r U -.u.u.u.u.u.u.8.>.*.T { { { { { U ",
"' } ' } } { T U c c c c c c c c c a f p p p f q f U Q R Q R R Q Q R P x e e r w e w v ;.u.u.8.8.8.8.8.>.X. .{ { | { { } ",
"} { ' } ' { T b c c c c c c n g g x p p p p f p f Y Q Q Q R R Q Q R I l e v e x z e P -.u.u.8.8.8.8.8.6. .{ [ ] [ |  .{ ",
"} } { } } R R Y c E E c c E n n c p f x l f f e f Y R Y Q R R Q ! U I x x x x x l e v -.u.u.u.8.8.8.8.6. .' [ ] ] ] { [ ",
"T } { ' } { R U I c E E E n c E g c f x f f f f f U Y Q Q Q R R R Y b x e x e x x e Y #.8.8.8.u.8.8.8.6.} ] ] ] ] ] ] | ",
"} { { } } T R U c c n c n n g n c c p x f c f f A Y Q Y R R R Q R ! U x x x x P x l U -.8.8.8.u.8.8.u.6. .] [ ] ] ] ) { ",
"T { T { } T R R c E c E c Y Y c c p f p f f f p f Y Q Q Q Q Y ^ R ! I x x x x P x w v -.p.u.x.u.u.u.u.8.O.] | | ] ] { | ",
"' { { T } T T R Y E E E E I I I p w f f x f f f f I Q Q Q Y Q ! Q Y P e x e e e e w U -.u.u.u.u.u.8.u.8.O.{ | { ] { ( | ",
"| {  . . .} T I a d i d d d d f v U ' U U U U R U Y E Q Y Y Y R Q U U ` ` ] ` ` ( ( ] X.X.*.=.X.o.o.o.o.R { { { { { { { ",
"<.<.&.&.&.:.-.x 3 ; 1 1 1 1 1 3 T 9.<.<.<.<.2.3.5.} Q Y Y Q Y Q Y U } <.<.$.<.<.<.9.&.x s s d s a s s P Y } { ' ' { ' { ",
"3.3.3.3.3.3.:.P X % % % < < # O R x.x.j.z.z.z.z.7.} c Y n Y Q Y b Y #.<.j.j.j.j.j.x.7.x @ @ @ 5 3 @ u q P } T { { { { } ",
"3.<.&.<.<.3.:.f ; % ; 1 < < # 1 ' 9.l.j.1.z.4.l.<.} v b c Y Y c Y U #.j.j.j.2.2.j.z.<.P 5 5 s 5 s s s u U } ' { ' { { } ",
"3.<.<.<.<.3.&.f ; ; % % 1 & % > R x.z.j.l.4.4.4.<.[ U Y Y U Y Y I Y &.9.z.h.j.h.j.z.<.x @ 5 5 s 5 5 5 p P } ' } ' { {  .",
",.3.3.3.3.3.&.A ; ; ; ; ; & % O } 9.l.4.1.4.4.l.<.' I b Y U Y Y Y Y  .2.z.j.1.4.j.z.<.x 0 s 3 s s s u q U } } ' } } { } ",
"3.,.3.3.3.3.:.f ; ; # ; 2 2 % 1 R 9.c.4.l.4.1.4.<.} U Y c Y Y Y I Y &.2.h.1.2.h.j.z.<.x 0 3 s s u 5 q s U { ' { { { { } ",
"3.3.3.3.3.9.7.g ; ; ; % % % $ ; R 0.v.z.z.4.4.c.4.} I U b Y Y I I U  .2.h.1.1.1.1.z.<.x @ u @ 0 0 u @ C U { ' { { { { { ",
"0.9.3.3.4.0.7.f # # % # # # # > T v.v.c.c.c.c.c.9.} x Y Y Y Y Y I Y <.4.j.z.z.z.j.x.4.x + 0 s 0 0 0 0 u P { { U T T { R ",
"{ V B { T ( T Z 3 u d 6 d i 3 s Y }  . . .} }  . .R I P I I I A S I }  .<. .#. .#. .} T Y ! I ! ! Y ! I Y U Y Y Y Y Y R ",
"+ + + o + o o N ^ ^ ^ ^ ^ ^ / Q p u t u u u u u s d Z A f Z f Z Z g P I I x x x x x P =.y.y.y.t.y.y.y.r.~ ! E ~ E W ~ ~ ",
"O . . .     o e / *.X.*.^ X.*.^ g 3 > 3 > 3 > 3 3 u d d s Z Z Z d A g A f g x p a p I ;.p.p.i.i.y.p.i.y.~ K E W K K K W ",
"O O . . .   + f X.*.R *.^ ^ / ^ f > > > 4 3 u 3 3 u d Z Z f s C A f S g A g g g p p P =.p.t.t.t.t.t.t.r.~ J J K K K K K ",
"O o o X o o o f ^ *.^ R ^ ^ X.^ g 3 t 3 4 u 4 3 3 3 d Z Z f Z Z s f A S P f c g f p x =.t.t.t.t.t.t.t.r.W j E E J J J L ",
"O O o X o o o A / *.^ ^ ^ ^ X.Q g 3 t 4 4 4 u > 3 s Z A C s s C A s Z A g I f x g f P ;.u.i.i.t.t.t.t.>.~ g J K J J J K ",
". . . . o o o A *./ ^ *.^ ^ ..^ g > 3 3 3 u 3 3 3 u s Z Z Z d A C p g P I f c f S p I =.t.t.u.>.t.u.u.r.E J J J J J J L ",
"O . . . . . o A *.*.R R / } X.^ c 3 > u 4 u 3 3 3 i d d C Z s Z Z f S S g x g P g A I >.0.p.u.p.t.u.t.r.~ K J J K J L ~ ",
"O X X X . . o f / X.^ ^ R / } R g 3 4 > 4 u 4 3 4 u j g Z Z C d Z Z A g c g c g S g Y >.p.u.8.t.8.u.t.r.~ J J J J J J K ",
"3 @ 3 1 3 @ 0 P X.} } } }  . .} g u u i 4 i u 4 u 4 d d 5 5 5 s s s Z d g c g g n d j / =.*.*.*.o.o.*.^ Z 6 d i d 6 d d ",
"s 6 6 6 6 s u I { | _ { { | { { x u i h h d i d i 6 5 1 1 6 6 1 3 5 6 G j j k k j j j n g g f f c f g d 4 ; ; ; ; > ; 1 ",
"6 d i 6 d i a I | _ ) ) _ ) | { x i i i h d i h s 6 2 1 6 1 1 6 2 6 9 j k k k 9 k k j h s p s p u u s 3 ; % ; ; % % % % ",
"d 6 4 d 6 i i Y | ) ) ) _ ) | | x p i i d d i i h i 1 6 1 6 6 1 2 4 9 H 9 H k k k k j j d a a g s s a d 4 % ; ; ; % % % ",
"6 d d j j 4 u b { ) ] ] ) ) | | x a i d i h j d d 6 4 2 4 2 2 4 2 7 9 9 H H k k k k j g g g d a g s g d ; ; % ; % ; X % ",
"d 9 6 6 9 j s U | ) ) ) ) ] _ | x i i d j h i j j i 4 4 4 2 4 1 4 4 9 G H k H H k j j g f p p s d f g s > ; : % 1 ; % ; ",
"d d j j 9 3 s I | ) ) ) ) ) | ] x i h j i d i j d 3 3 2 6 1 6 1 1 4 9 G H k H H k k j g d a s g p g s i > % % ; % % ; % ",
"i 6 d 6 6 i s U { _ ) _ ) ) | ' c u h h i i u d s 3 5 1 1 1 1 1 4 4 j G k H k H k k k a a a a a g a d d 3 % : % % ; % ; ",
"d d j j d h s I  .| } { | [ } } c u i u u u u i s 3 1 3 5 1 5 4 3 3 6 j j j H H j k j d d d d d h g Z a 3 % % ; % % ; ; ",
"i d d 6 j d s a A x p f p p x a a d d g g g s s g d 5 5 6 6 5 5 6 d d j j G j j j G h i u 3 i 4 u 4 i 4 ; ; 2 ; 1 ; ; ; ",
"s d d d j d d 3 ; ; > ; > > > , a n E I J I n E E g s s Z d s d s d j d j j 9 j j j h 4 : : : - : : : : 4 , 4 2 2 4 4 ; ",
"d d i i d j a 3 $ $ & & $ & $ $ i n Y c I n c c c g a g f A d g s d h j 9 j i d h j 8 2 : & : & & : & : 2 , > 1 : 3 : 3 ",
"d d d d g j d 4 : $ $ & $ & $ * i I c I c I I I c g s g d g d f d g g j i j j h j j h 2 & : : : : & : : : 4 2 2 3 : ; : ",
"d g d d d g d 4 : & & & & & & * i E I I I E c c I g a g s g d f g a j d j h j i h j 8 : & & : & : : : : 2 4 4 , 4 ; 4 ; ",
"d d d g d d u , : & & & & & & : i c I c I c I c I g f d f d f d d d d j i j h j i j 8 2 * : : : : & : : 2 , ; 3 : 4 2 , ",
"d g d d g g d 4 < & & & & & & & j n I c I I c I c g p g d f d f f d d j j j j i h h h : : : : : & 7 : : : 2 4 ; 4 : , 4 ",
"g j Z d G d i 4 & & & & & & & 2 i I Y c I g c I Y g p s a s a a d g d j j 4 i j h d h 4 * : : : & & : * 3 , : 4 ; 3 1 ; ",
"j j Z j d j d 2 & & & & & & & < i E Y I I I I Y I p u s s a s s f i d j j j h i h h i ; ; : : : - : * - > , 3 ; , 2 1 1 ",
"d 6 4 d d 9 3 2 2 2 : 2 7 7 & < h ! I S S I I S A f s s s i s s s s 6 6 4 9 4 i 8 4 4 3 3 3 3 3 4 4 4 3 3 ; 4 4 1 3 1 3 ",
"1 2 2 2 2 2 4 2 4 7 7 7 6 7 2 6 Z I ! F I S ! I S C 5 3 5 @ 5 @ < 5 1 6 2 1 1 1 2 1 1 s S S S g Z Z Z Z 6 3 4 6 6 1 3 4 ",
"2 4 2 2 2 4 2 4 6 6 6 6 6 2 6 6 F ! I I J ! I ! S s @ 5 5 3 5 5 D 5 6 1 2 6 1 1 1 < 1 C S A Z A A A P A d 6 6 6 6 7 6 6 ",
"2 2 2 2 2 2 2 4 2 6 5 5 4 6 4 6 Z ! I ! ! S ! F S Z 1 5 @ 5 5 @ O 5 1 1 1 1 1 1 1 1 @ C A P C A A A C f 5 6 6 6 6 4 6 6 ",
"2 2 4 2 2 2 4 6 6 5 6 1 6 6 5 6 Z ! ! ! F ! L ! S Z @ @ 5 3 3 5 1 @ 6 1 1 1 1 1 1 1 3 s N f e A N x A C 5 6 6 1 2 5 6 6 ",
"2 2 2 2 2 2 2 7 6 6 6 6 6 6 6 6 Z ! S I I ! F L S s 3 3 5 @ 3 0 5 5 1 1 1 3 1 2 2 1 1 C A f A A A f A A 5 6 6 6 6 6 6 6 ",
"4 7 2 7 7 2 7 7 4 4 7 6 7 4 6 5 Z S ! F S ! ! ! ! C 3 @ 3 3 3 3 @ 5 1 1 1 1 1 2 1 < 3 u A A N A A A A Z i 6 7 7 6 2 5 6 ",
"2 2 2 & 7 7 7 2 1 1 6 6 6 6 6 6 Z L ! P ! ! S ! S s @ 3 3 @ 3 3 3 3 1 1 1 > 1 1 1 1 O s P P A A P A A A d 2 7 4 2 2 1 6 ",
"4 2 2 2 2 4 2 4 4 6 6 4 3 6 1 5 Z S I ! S J S I S s 5 3 u 3 3 5 5 3 3 3 1 1 O 1 1 1 3 s A A A C A A A g 6 4 4 4 5 5 5 6 "
};
